<?xml version="1.0" encoding="UTF-8"?>
<svg xmlns="http://www.w3.org/2000/svg" xmlns:xlink="http://www.w3.org/1999/xlink" width="612" height="792" viewBox="0 0 612 792">
<defs>
<clipPath id="clip-0">
<path clip-rule="nonzero" d="M 191 6 L 196 6 L 196 27 L 191 27 Z M 191 6 "/>
</clipPath>
<clipPath id="clip-1">
<path clip-rule="nonzero" d="M 43 238 L 344 238 L 344 248.25 L 43 248.25 Z M 43 238 "/>
</clipPath>
</defs>
<path fill="none" stroke-width="2" stroke-linecap="round" stroke-linejoin="round" stroke="rgb(28.62854%, 74.508667%, 71.759033%)" stroke-opacity="1" stroke-miterlimit="10" d="M 64.500475 50.292763 C 64.500475 42.285869 58.008871 35.793378 49.999999 35.793378 C 41.991126 35.793378 35.499522 42.285869 35.499522 50.292763 C 35.499522 53.771846 36.726781 56.960363 38.768371 59.458068 L 61.233547 59.458068 C 63.273216 56.960363 64.500475 53.771846 64.500475 50.292763 Z M 64.500475 50.292763 " transform="matrix(2.033877, 0, 0, 2.029989, 91.806147, -40.269541)"/>
<path fill="none" stroke-width="2" stroke-linecap="round" stroke-linejoin="round" stroke="rgb(28.62854%, 74.508667%, 71.759033%)" stroke-opacity="1" stroke-miterlimit="10" d="M 26.874139 65.625358 L 73.125858 65.625358 " transform="matrix(2.033877, 0, 0, 2.029989, 91.806147, -40.269541)"/>
<path fill="none" stroke-width="2" stroke-linecap="round" stroke-linejoin="round" stroke="rgb(28.62854%, 74.508667%, 71.759033%)" stroke-opacity="1" stroke-miterlimit="10" d="M 42.709428 77.205623 L 57.290569 77.205623 " transform="matrix(2.033877, 0, 0, 2.029989, 91.806147, -40.269541)"/>
<path fill="none" stroke-width="2" stroke-linecap="round" stroke-linejoin="round" stroke="rgb(28.62854%, 74.508667%, 71.759033%)" stroke-opacity="1" stroke-miterlimit="10" d="M 36.624989 71.41549 L 63.375008 71.41549 " transform="matrix(2.033877, 0, 0, 2.029989, 91.806147, -40.269541)"/>
<g clip-path="url(#clip-0)">
<path fill="none" stroke-width="2" stroke-linecap="round" stroke-linejoin="round" stroke="rgb(28.62854%, 74.508667%, 71.759033%)" stroke-opacity="1" stroke-miterlimit="10" d="M 49.999999 32.042973 L 49.999999 22.793 " transform="matrix(2.033877, 0, 0, 2.029989, 91.806147, -40.269541)"/>
</g>
<path fill="none" stroke-width="2" stroke-linecap="round" stroke-linejoin="round" stroke="rgb(28.62854%, 74.508667%, 71.759033%)" stroke-opacity="1" stroke-miterlimit="10" d="M 68.428088 50.292763 L 76.930553 50.292763 " transform="matrix(2.033877, 0, 0, 2.029989, 91.806147, -40.269541)"/>
<path fill="none" stroke-width="2" stroke-linecap="round" stroke-linejoin="round" stroke="rgb(28.62854%, 74.508667%, 71.759033%)" stroke-opacity="1" stroke-miterlimit="10" d="M 23.073286 50.292763 L 31.57383 50.292763 " transform="matrix(2.033877, 0, 0, 2.029989, 91.806147, -40.269541)"/>
<path fill="none" stroke-width="2" stroke-linecap="round" stroke-linejoin="round" stroke="rgb(28.62854%, 74.508667%, 71.759033%)" stroke-opacity="1" stroke-miterlimit="10" d="M 30.95924 31.254021 L 36.970696 37.263521 " transform="matrix(2.033877, 0, 0, 2.029989, 91.806147, -40.269541)"/>
<path fill="none" stroke-width="2" stroke-linecap="round" stroke-linejoin="round" stroke="rgb(28.62854%, 74.508667%, 71.759033%)" stroke-opacity="1" stroke-miterlimit="10" d="M 63.031222 37.265445 L 69.042678 31.254021 " transform="matrix(2.033877, 0, 0, 2.029989, 91.806147, -40.269541)"/>
<path fill="none" stroke-width="2" stroke-linecap="round" stroke-linejoin="round" stroke="rgb(28.62854%, 74.508667%, 71.759033%)" stroke-opacity="1" stroke-miterlimit="10" d="M 13.124614 59.458068 L 86.875383 59.458068 " transform="matrix(2.033877, 0, 0, 2.029989, 91.806147, -40.269541)"/>
<path fill-rule="nonzero" fill="rgb(91.758728%, 100%, 96.859741%)" fill-opacity="1" d="M 58.957031 199.503906 L 53.335938 186.53125 L 21.898438 186.53125 L 16.277344 199.503906 L 6.003906 199.503906 L 33.402344 138.144531 L 41.832031 138.144531 L 69.234375 199.503906 Z M 25.410156 178.554688 L 49.824219 178.554688 L 37.617188 150.328125 Z M 111.652344 153.921875 L 121.136719 153.921875 L 121.136719 216.15625 L 111.652344 216.15625 L 111.652344 191.964844 C 110.507812 195.644531 105.0625 200.378906 96.808594 200.378906 C 86.445312 200.378906 74.0625 192.667969 74.0625 176.714844 C 74.0625 161.023438 86.445312 153.132812 96.808594 153.132812 C 105.0625 153.132812 110.507812 158.042969 111.652344 161.023438 Z M 98.039062 191.964844 C 105.152344 191.964844 112.089844 186.96875 112.089844 176.714844 C 112.089844 166.546875 105.152344 161.550781 98.039062 161.550781 C 90.925781 161.550781 83.285156 166.632812 83.285156 176.714844 C 83.285156 186.882812 90.925781 191.964844 98.039062 191.964844 Z M 147.304688 200.203125 C 138.523438 200.203125 129.917969 194.507812 129.917969 180.308594 L 129.917969 153.921875 L 139.402344 153.921875 L 139.402344 179.78125 C 139.402344 188.457031 143.53125 191.878906 149.414062 191.878906 C 156.964844 191.878906 161.882812 184.863281 162.9375 180.394531 L 162.9375 153.921875 L 172.421875 153.921875 L 172.421875 199.503906 L 162.9375 199.503906 L 162.9375 189.863281 C 162.058594 192.667969 156.789062 200.203125 147.304688 200.203125 Z M 203.074219 153.132812 C 211.328125 153.132812 216.773438 158.042969 217.914062 161.023438 L 217.914062 153.921875 L 227.398438 153.921875 L 227.398438 199.503906 L 217.914062 199.503906 L 217.914062 191.964844 C 216.773438 195.648438 211.328125 200.378906 203.074219 200.378906 C 192.710938 200.378906 180.328125 192.667969 180.328125 176.714844 C 180.328125 161.023438 192.710938 153.132812 203.074219 153.132812 Z M 204.300781 161.550781 C 197.1875 161.550781 189.546875 166.632812 189.546875 176.714844 C 189.546875 186.882812 197.1875 191.964844 204.300781 191.964844 C 211.414062 191.964844 218.351562 186.96875 218.351562 176.714844 C 218.351562 166.546875 211.414062 161.550781 204.300781 161.550781 Z M 247.160156 190.5625 L 273.242188 190.5625 L 273.242188 199.503906 L 237.5 199.503906 L 237.5 138.144531 L 247.160156 138.144531 Z M 299.9375 153.132812 C 308.195312 153.132812 313.640625 158.042969 314.78125 161.023438 L 314.78125 153.921875 L 324.265625 153.921875 L 324.265625 199.503906 L 314.78125 199.503906 L 314.78125 191.964844 C 313.640625 195.648438 308.195312 200.378906 299.9375 200.378906 C 289.578125 200.378906 277.195312 192.667969 277.195312 176.714844 C 277.195312 161.023438 289.578125 153.132812 299.9375 153.132812 Z M 301.167969 161.550781 C 294.054688 161.550781 286.414062 166.632812 286.414062 176.714844 C 286.414062 186.882812 294.054688 191.964844 301.167969 191.964844 C 308.28125 191.964844 315.21875 186.96875 315.21875 176.714844 C 315.21875 166.546875 308.28125 161.550781 301.167969 161.550781 Z M 358.253906 153.132812 C 368.617188 153.132812 380.996094 161.023438 380.996094 176.714844 C 380.996094 192.667969 368.617188 200.378906 358.253906 200.378906 C 349.996094 200.378906 344.550781 195.648438 343.410156 191.964844 L 343.410156 199.503906 L 333.925781 199.503906 L 333.925781 137.53125 L 343.410156 137.53125 L 343.410156 161.023438 C 344.550781 158.042969 349.996094 153.132812 358.253906 153.132812 Z M 357.023438 191.964844 C 364.136719 191.964844 371.777344 186.882812 371.777344 176.714844 C 371.777344 166.632812 364.136719 161.550781 357.023438 161.550781 C 349.910156 161.550781 342.972656 166.546875 342.972656 176.714844 C 342.972656 186.96875 349.910156 191.964844 357.023438 191.964844 Z M 357.023438 191.964844 "/>
<g clip-path="url(#clip-1)">
<path fill-rule="nonzero" fill="rgb(28.62854%, 74.508667%, 71.759033%)" fill-opacity="1" d="M 46.253906 240.105469 C 48.042969 240.105469 49.175781 241.199219 49.175781 242.78125 C 49.175781 244.363281 48.042969 245.367188 46.253906 245.367188 L 44.996094 245.367188 L 44.996094 248.078125 L 43.5 248.078125 L 43.5 240.105469 Z M 46.171875 244.082031 C 47.074219 244.082031 47.679688 243.691406 47.679688 242.78125 C 47.679688 241.882812 47.074219 241.484375 46.171875 241.484375 L 44.996094 241.484375 L 44.996094 244.082031 Z M 62.121094 239.988281 C 64.3125 239.988281 66.25 241.675781 66.25 244.089844 C 66.25 246.507812 64.3125 248.191406 62.121094 248.191406 C 59.925781 248.191406 57.988281 246.507812 57.988281 244.089844 C 57.988281 241.675781 59.925781 239.988281 62.121094 239.988281 Z M 62.121094 246.792969 C 63.511719 246.792969 64.6875 245.664062 64.6875 244.089844 C 64.6875 242.519531 63.511719 241.390625 62.121094 241.390625 C 60.714844 241.390625 59.539062 242.519531 59.539062 244.089844 C 59.539062 245.664062 60.714844 246.792969 62.121094 246.792969 Z M 81.535156 248.078125 L 79.949219 248.078125 L 78.167969 245.367188 L 76.84375 245.367188 L 76.84375 248.078125 L 75.347656 248.078125 L 75.347656 240.105469 L 78.101562 240.105469 C 79.890625 240.105469 81.023438 241.199219 81.023438 242.78125 C 81.023438 243.886719 80.476562 244.707031 79.539062 245.105469 Z M 76.84375 241.484375 L 76.84375 244.082031 L 78.019531 244.082031 C 78.921875 244.082031 79.527344 243.691406 79.527344 242.78125 C 79.527344 241.882812 78.921875 241.484375 78.019531 241.484375 Z M 107.515625 238.054688 L 106.089844 239.523438 L 104.984375 239.523438 L 105.757812 238.054688 Z M 108.191406 248.078125 L 107.527344 246.539062 L 103.578125 246.539062 L 102.917969 248.078125 L 101.328125 248.078125 L 104.890625 240.105469 L 106.226562 240.105469 L 109.777344 248.078125 Z M 104.105469 245.320312 L 107.003906 245.320312 L 105.554688 241.949219 Z M 126.125 243.886719 C 126.429688 246.539062 124.683594 248.191406 122.550781 248.191406 C 120.3125 248.191406 118.417969 246.507812 118.417969 244.089844 C 118.417969 241.675781 120.359375 239.988281 122.550781 239.988281 C 123.589844 239.988281 124.523438 240.332031 125.222656 240.9375 L 124.320312 241.960938 C 123.863281 241.621094 123.257812 241.390625 122.640625 241.390625 C 121.144531 241.390625 119.96875 242.519531 119.96875 244.089844 C 119.96875 245.664062 121.113281 246.792969 122.550781 246.792969 C 123.691406 246.792969 124.503906 246.335938 124.742188 245.164062 L 122.753906 245.164062 L 122.753906 243.886719 Z M 139.832031 240.105469 L 141.328125 240.105469 L 141.328125 245.183594 C 141.328125 247.121094 139.945312 248.25 138.292969 248.25 C 136.625 248.25 135.242188 247.121094 135.242188 245.183594 L 135.242188 240.105469 L 136.738281 240.105469 L 136.738281 245.183594 C 136.738281 246.4375 137.539062 246.847656 138.292969 246.847656 C 139.042969 246.847656 139.832031 246.4375 139.832031 245.183594 Z M 157 248.078125 L 156.339844 246.539062 L 152.390625 246.539062 L 151.726562 248.078125 L 150.140625 248.078125 L 153.703125 240.105469 L 155.039062 240.105469 L 158.585938 248.078125 Z M 152.914062 245.320312 L 155.8125 245.320312 L 154.363281 241.949219 Z M 169.980469 239.96875 C 171.335938 239.96875 172.238281 240.832031 172.640625 241.621094 L 171.53125 242.269531 C 171.109375 241.640625 170.652344 241.289062 169.980469 241.289062 C 169.339844 241.289062 168.882812 241.664062 168.882812 242.175781 C 168.882812 242.667969 169.179688 242.953125 169.867188 243.203125 L 170.414062 243.40625 C 172.113281 244.011719 172.855469 244.753906 172.855469 245.890625 C 172.855469 247.441406 171.382812 248.25 170.023438 248.25 C 168.597656 248.25 167.480469 247.40625 167.113281 246.289062 L 168.265625 245.6875 C 168.550781 246.324219 169.089844 246.894531 170.023438 246.894531 C 170.734375 246.894531 171.304688 246.550781 171.304688 245.914062 C 171.304688 245.265625 170.894531 244.980469 170.003906 244.648438 L 169.488281 244.46875 C 168.300781 244.035156 167.398438 243.441406 167.398438 242.121094 C 167.398438 240.867188 168.550781 239.96875 169.980469 239.96875 Z M 201.667969 240.105469 L 201.667969 248.078125 L 200.125 248.078125 L 200.125 243.453125 L 198.046875 248.078125 L 196.769531 248.078125 L 194.703125 243.476562 L 194.703125 248.078125 L 193.164062 248.078125 L 193.164062 240.105469 L 194.648438 240.105469 L 197.421875 246.074219 L 200.183594 240.105469 Z M 217.339844 248.078125 L 216.679688 246.539062 L 212.726562 246.539062 L 212.066406 248.078125 L 210.480469 248.078125 L 214.042969 240.105469 L 215.375 240.105469 L 218.925781 248.078125 Z M 213.253906 245.320312 L 216.152344 245.320312 L 214.703125 241.949219 Z M 229.234375 240.105469 L 229.234375 248.078125 L 227.738281 248.078125 L 227.738281 240.105469 Z M 241.082031 239.96875 C 242.441406 239.96875 243.34375 240.832031 243.742188 241.621094 L 242.636719 242.269531 C 242.214844 241.640625 241.757812 241.289062 241.082031 241.289062 C 240.445312 241.289062 239.988281 241.664062 239.988281 242.175781 C 239.988281 242.667969 240.285156 242.953125 240.96875 243.203125 L 241.515625 243.40625 C 243.21875 244.011719 243.960938 244.753906 243.960938 245.890625 C 243.960938 247.441406 242.488281 248.25 241.128906 248.25 C 239.703125 248.25 238.582031 247.40625 238.21875 246.289062 L 239.371094 245.6875 C 239.65625 246.324219 240.191406 246.894531 241.128906 246.894531 C 241.835938 246.894531 242.40625 246.550781 242.40625 245.914062 C 242.40625 245.265625 241.996094 244.980469 241.105469 244.648438 L 240.59375 244.46875 C 239.40625 244.035156 238.503906 243.441406 238.503906 242.121094 C 238.503906 240.867188 239.65625 239.96875 241.082031 239.96875 Z M 265.761719 246.699219 L 269.003906 246.699219 L 269.003906 248.078125 L 264.265625 248.078125 L 264.265625 240.105469 L 265.761719 240.105469 Z M 279.539062 240.105469 L 279.539062 248.078125 L 278.046875 248.078125 L 278.046875 240.105469 Z M 297.3125 240.105469 L 297.3125 248.078125 L 295.773438 248.078125 L 295.773438 243.453125 L 293.695312 248.078125 L 292.417969 248.078125 L 290.351562 243.476562 L 290.351562 248.078125 L 288.808594 248.078125 L 288.808594 240.105469 L 290.292969 240.105469 L 293.066406 246.074219 L 295.828125 240.105469 Z M 309.332031 240.105469 C 311.125 240.105469 312.253906 241.199219 312.253906 242.78125 C 312.253906 244.363281 311.125 245.367188 309.332031 245.367188 L 308.078125 245.367188 L 308.078125 248.078125 L 306.582031 248.078125 L 306.582031 240.105469 Z M 309.253906 244.082031 C 310.15625 244.082031 310.761719 243.691406 310.761719 242.78125 C 310.761719 241.882812 310.15625 241.484375 309.253906 241.484375 L 308.078125 241.484375 L 308.078125 244.082031 Z M 327.644531 248.078125 L 326.980469 246.539062 L 323.03125 246.539062 L 322.371094 248.078125 L 320.78125 248.078125 L 324.34375 240.105469 L 325.679688 240.105469 L 329.230469 248.078125 Z M 323.554688 245.320312 L 326.457031 245.320312 L 325.007812 241.949219 Z M 340.621094 239.96875 C 341.980469 239.96875 342.882812 240.832031 343.28125 241.621094 L 342.175781 242.269531 C 341.75 241.640625 341.296875 241.289062 340.621094 241.289062 C 339.984375 241.289062 339.527344 241.664062 339.527344 242.175781 C 339.527344 242.667969 339.824219 242.953125 340.507812 243.203125 L 341.054688 243.40625 C 342.757812 244.011719 343.5 244.753906 343.5 245.890625 C 343.5 247.441406 342.027344 248.25 340.667969 248.25 C 339.242188 248.25 338.121094 247.40625 337.757812 246.289062 L 338.910156 245.6875 C 339.195312 246.324219 339.730469 246.894531 340.667969 246.894531 C 341.375 246.894531 341.945312 246.550781 341.945312 245.914062 C 341.945312 245.265625 341.535156 244.980469 340.644531 244.648438 L 340.132812 244.46875 C 338.945312 244.035156 338.042969 243.441406 338.042969 242.121094 C 338.042969 240.867188 339.195312 239.96875 340.621094 239.96875 Z M 340.621094 239.96875 "/>
</g>
</svg>
