<?xml version="1.0" encoding="UTF-8"?>
<svg xmlns="http://www.w3.org/2000/svg" xmlns:xlink="http://www.w3.org/1999/xlink" width="612" height="792" viewBox="0 0 612 792">
<defs>
<clipPath id="clip-0">
<path clip-rule="nonzero" d="M 45 78 L 68 78 L 68 80.25 L 45 80.25 Z M 45 78 "/>
</clipPath>
<clipPath id="clip-1">
<path clip-rule="nonzero" d="M 55 6 L 58 6 L 58 20 L 55 20 Z M 55 6 "/>
</clipPath>
<clipPath id="clip-2">
<path clip-rule="nonzero" d="M 6 54 L 109 54 L 109 58 L 6 58 Z M 6 54 "/>
</clipPath>
<clipPath id="clip-3">
<path clip-rule="nonzero" d="M 128 13 L 411.75 13 L 411.75 73 L 128 73 Z M 128 13 "/>
</clipPath>
</defs>
<path fill="none" stroke-width="2" stroke-linecap="round" stroke-linejoin="round" stroke="rgb(28.62854%, 74.508667%, 71.759033%)" stroke-opacity="1" stroke-miterlimit="10" d="M 64.499992 50.294355 C 64.499992 42.284697 58.006697 35.792236 49.999156 35.792236 C 41.991614 35.792236 35.501171 42.284697 35.501171 50.294355 C 35.501171 53.769597 36.727397 56.958574 38.769206 59.457657 L 61.231957 59.457657 C 63.273766 56.961437 64.499992 53.769597 64.499992 50.294355 Z M 64.499992 50.294355 " transform="matrix(1.369802, 0, 0, 1.364563, -11.957717, -25.102495)"/>
<path fill="none" stroke-width="2" stroke-linecap="round" stroke-linejoin="round" stroke="rgb(28.62854%, 74.508667%, 71.759033%)" stroke-opacity="1" stroke-miterlimit="10" d="M 26.874813 65.623777 L 73.12635 65.623777 " transform="matrix(1.369802, 0, 0, 1.364563, -11.957717, -25.102495)"/>
<g clip-path="url(#clip-0)">
<path fill="none" stroke-width="2" stroke-linecap="round" stroke-linejoin="round" stroke="rgb(28.62854%, 74.508667%, 71.759033%)" stroke-opacity="1" stroke-miterlimit="10" d="M 42.71024 77.206007 L 57.290923 77.206007 " transform="matrix(1.369802, 0, 0, 1.364563, -11.957717, -25.102495)"/>
</g>
<path fill="none" stroke-width="2" stroke-linecap="round" stroke-linejoin="round" stroke="rgb(28.62854%, 74.508667%, 71.759033%)" stroke-opacity="1" stroke-miterlimit="10" d="M 36.624737 71.414892 L 63.373575 71.414892 " transform="matrix(1.369802, 0, 0, 1.364563, -11.957717, -25.102495)"/>
<g clip-path="url(#clip-1)">
<path fill="none" stroke-width="2" stroke-linecap="round" stroke-linejoin="round" stroke="rgb(28.62854%, 74.508667%, 71.759033%)" stroke-opacity="1" stroke-miterlimit="10" d="M 49.999156 32.042181 L 49.999156 22.793 " transform="matrix(1.369802, 0, 0, 1.364563, -11.957717, -25.102495)"/>
</g>
<path fill="none" stroke-width="2" stroke-linecap="round" stroke-linejoin="round" stroke="rgb(28.62854%, 74.508667%, 71.759033%)" stroke-opacity="1" stroke-miterlimit="10" d="M 68.429619 50.294355 L 76.930502 50.294355 " transform="matrix(1.369802, 0, 0, 1.364563, -11.957717, -25.102495)"/>
<path fill="none" stroke-width="2" stroke-linecap="round" stroke-linejoin="round" stroke="rgb(28.62854%, 74.508667%, 71.759033%)" stroke-opacity="1" stroke-miterlimit="10" d="M 23.073513 50.294355 L 31.574396 50.294355 " transform="matrix(1.369802, 0, 0, 1.364563, -11.957717, -25.102495)"/>
<path fill="none" stroke-width="2" stroke-linecap="round" stroke-linejoin="round" stroke="rgb(28.62854%, 74.508667%, 71.759033%)" stroke-opacity="1" stroke-miterlimit="10" d="M 30.961283 31.254956 L 36.969791 37.263631 " transform="matrix(1.369802, 0, 0, 1.364563, -11.957717, -25.102495)"/>
<path fill="none" stroke-width="2" stroke-linecap="round" stroke-linejoin="round" stroke="rgb(28.62854%, 74.508667%, 71.759033%)" stroke-opacity="1" stroke-miterlimit="10" d="M 63.031372 37.263631 L 69.042732 31.254956 " transform="matrix(1.369802, 0, 0, 1.364563, -11.957717, -25.102495)"/>
<g clip-path="url(#clip-2)">
<path fill="none" stroke-width="2" stroke-linecap="round" stroke-linejoin="round" stroke="rgb(28.62854%, 74.508667%, 71.759033%)" stroke-opacity="1" stroke-miterlimit="10" d="M 13.123971 59.457657 L 86.87434 59.457657 " transform="matrix(1.369802, 0, 0, 1.364563, -11.957717, -25.102495)"/>
</g>
<g clip-path="url(#clip-3)">
<path fill-rule="nonzero" fill="rgb(91.758728%, 100%, 96.859741%)" fill-opacity="1" d="M 168.808594 60.304688 L 164.570312 50.539062 L 140.855469 50.539062 L 136.617188 60.304688 L 128.863281 60.304688 L 149.53125 14.109375 L 155.894531 14.109375 L 176.5625 60.304688 Z M 143.503906 44.53125 L 161.921875 44.53125 L 152.710938 23.28125 Z M 208.558594 25.988281 L 215.710938 25.988281 L 215.710938 72.84375 L 208.558594 72.84375 L 208.558594 54.628906 C 207.695312 57.402344 203.589844 60.964844 197.363281 60.964844 C 189.542969 60.964844 180.203125 55.15625 180.203125 43.144531 C 180.203125 31.335938 189.542969 25.394531 197.363281 25.394531 C 203.589844 25.394531 207.695312 29.089844 208.558594 31.335938 Z M 198.289062 54.628906 C 203.65625 54.628906 208.886719 50.867188 208.886719 43.144531 C 208.886719 35.492188 203.65625 31.730469 198.289062 31.730469 C 192.921875 31.730469 187.160156 35.558594 187.160156 43.144531 C 187.160156 50.800781 192.921875 54.628906 198.289062 54.628906 Z M 235.453125 60.832031 C 228.828125 60.832031 222.335938 56.542969 222.335938 45.851562 L 222.335938 25.988281 L 229.492188 25.988281 L 229.492188 45.457031 C 229.492188 51.988281 232.605469 54.5625 237.042969 54.5625 C 242.738281 54.5625 246.449219 49.285156 247.242188 45.917969 L 247.242188 25.988281 L 254.398438 25.988281 L 254.398438 60.304688 L 247.242188 60.304688 L 247.242188 53.046875 C 246.582031 55.15625 242.605469 60.832031 235.453125 60.832031 Z M 277.515625 25.394531 C 283.746094 25.394531 287.851562 29.089844 288.714844 31.335938 L 288.714844 25.988281 L 295.867188 25.988281 L 295.867188 60.304688 L 288.714844 60.304688 L 288.714844 54.628906 C 287.851562 57.402344 283.746094 60.964844 277.515625 60.964844 C 269.699219 60.964844 260.359375 55.15625 260.359375 43.144531 C 260.359375 31.335938 269.699219 25.394531 277.515625 25.394531 Z M 278.445312 31.730469 C 273.078125 31.730469 267.316406 35.558594 267.316406 43.144531 C 267.316406 50.800781 273.078125 54.628906 278.445312 54.628906 C 283.8125 54.628906 289.042969 50.867188 289.042969 43.144531 C 289.042969 35.492188 283.8125 31.730469 278.445312 31.730469 Z M 310.773438 53.574219 L 330.445312 53.574219 L 330.445312 60.304688 L 303.484375 60.304688 L 303.484375 14.109375 L 310.773438 14.109375 Z M 350.585938 25.394531 C 356.8125 25.394531 360.917969 29.089844 361.78125 31.335938 L 361.78125 25.988281 L 368.933594 25.988281 L 368.933594 60.304688 L 361.78125 60.304688 L 361.78125 54.628906 C 360.917969 57.402344 356.8125 60.964844 350.585938 60.964844 C 342.769531 60.964844 333.429688 55.15625 333.429688 43.144531 C 333.429688 31.335938 342.769531 25.394531 350.585938 25.394531 Z M 351.511719 31.730469 C 346.148438 31.730469 340.382812 35.558594 340.382812 43.144531 C 340.382812 50.800781 346.148438 54.628906 351.511719 54.628906 C 356.878906 54.628906 362.113281 50.867188 362.113281 43.144531 C 362.113281 35.492188 356.878906 31.730469 351.511719 31.730469 Z M 394.570312 25.394531 C 402.386719 25.394531 411.730469 31.335938 411.730469 43.144531 C 411.730469 55.15625 402.386719 60.964844 394.570312 60.964844 C 388.34375 60.964844 384.238281 57.402344 383.375 54.628906 L 383.375 60.304688 L 376.222656 60.304688 L 376.222656 13.648438 L 383.375 13.648438 L 383.375 31.335938 C 384.238281 29.089844 388.34375 25.394531 394.570312 25.394531 Z M 393.644531 54.628906 C 399.011719 54.628906 404.773438 50.800781 404.773438 43.144531 C 404.773438 35.558594 399.011719 31.730469 393.644531 31.730469 C 388.277344 31.730469 383.046875 35.492188 383.046875 43.144531 C 383.046875 50.867188 388.277344 54.628906 393.644531 54.628906 Z M 393.644531 54.628906 "/>
</g>
</svg>
