<?xml version="1.0" encoding="UTF-8"?>
<svg xmlns="http://www.w3.org/2000/svg" xmlns:xlink="http://www.w3.org/1999/xlink" width="612" height="792" viewBox="0 0 612 792">
<defs>
<clipPath id="clip-0">
<path clip-rule="nonzero" d="M 6 64 L 122 64 L 122 68 L 6 68 Z M 6 64 "/>
</clipPath>
<clipPath id="clip-1">
<path clip-rule="nonzero" d="M 171 89 L 401 89 L 401 97.5 L 171 97.5 Z M 171 89 "/>
</clipPath>
</defs>
<path fill="none" stroke-width="2" stroke-linecap="round" stroke-linejoin="round" stroke="rgb(28.62854%, 74.508667%, 71.759033%)" stroke-opacity="1" stroke-miterlimit="10" d="M 64.49951 50.292247 C 64.49951 42.283845 58.007768 35.793195 49.998934 35.793195 C 41.99262 35.793195 35.500878 42.283845 35.500878 50.292247 C 35.500878 53.770009 36.72816 56.958795 38.76691 59.459064 L 61.233478 59.459064 C 63.272228 56.961308 64.49951 53.770009 64.49951 50.292247 Z M 64.49951 50.292247 " transform="matrix(1.550046, 0, 0, 1.55452, -14.328782, -25.992794)"/>
<path fill="none" stroke-width="2" stroke-linecap="round" stroke-linejoin="round" stroke="rgb(28.62854%, 74.508667%, 71.759033%)" stroke-opacity="1" stroke-miterlimit="10" d="M 26.874623 65.625559 L 73.125765 65.625559 " transform="matrix(1.550046, 0, 0, 1.55452, -14.328782, -25.992794)"/>
<path fill="none" stroke-width="2" stroke-linecap="round" stroke-linejoin="round" stroke="rgb(28.62854%, 74.508667%, 71.759033%)" stroke-opacity="1" stroke-miterlimit="10" d="M 42.708324 77.20721 L 57.289543 77.20721 " transform="matrix(1.550046, 0, 0, 1.55452, -14.328782, -25.992794)"/>
<path fill="none" stroke-width="2" stroke-linecap="round" stroke-linejoin="round" stroke="rgb(28.62854%, 74.508667%, 71.759033%)" stroke-opacity="1" stroke-miterlimit="10" d="M 36.624836 71.415128 L 63.375551 71.415128 " transform="matrix(1.550046, 0, 0, 1.55452, -14.328782, -25.992794)"/>
<path fill="none" stroke-width="2" stroke-linecap="round" stroke-linejoin="round" stroke="rgb(28.62854%, 74.508667%, 71.759033%)" stroke-opacity="1" stroke-miterlimit="10" d="M 49.998934 32.044047 L 49.998934 22.791793 " transform="matrix(1.550046, 0, 0, 1.55452, -14.328782, -25.992794)"/>
<path fill="none" stroke-width="2" stroke-linecap="round" stroke-linejoin="round" stroke="rgb(28.62854%, 74.508667%, 71.759033%)" stroke-opacity="1" stroke-miterlimit="10" d="M 68.428324 50.292247 L 76.931095 50.292247 " transform="matrix(1.550046, 0, 0, 1.55452, -14.328782, -25.992794)"/>
<path fill="none" stroke-width="2" stroke-linecap="round" stroke-linejoin="round" stroke="rgb(28.62854%, 74.508667%, 71.759033%)" stroke-opacity="1" stroke-miterlimit="10" d="M 23.074333 50.292247 L 31.574584 50.292247 " transform="matrix(1.550046, 0, 0, 1.55452, -14.328782, -25.992794)"/>
<path fill="none" stroke-width="2" stroke-linecap="round" stroke-linejoin="round" stroke="rgb(28.62854%, 74.508667%, 71.759033%)" stroke-opacity="1" stroke-miterlimit="10" d="M 30.959683 31.255017 L 36.970088 37.263203 " transform="matrix(1.550046, 0, 0, 1.55452, -14.328782, -25.992794)"/>
<path fill="none" stroke-width="2" stroke-linecap="round" stroke-linejoin="round" stroke="rgb(28.62854%, 74.508667%, 71.759033%)" stroke-opacity="1" stroke-miterlimit="10" d="M 63.030299 37.265716 L 69.043225 31.255017 " transform="matrix(1.550046, 0, 0, 1.55452, -14.328782, -25.992794)"/>
<g clip-path="url(#clip-0)">
<path fill="none" stroke-width="2" stroke-linecap="round" stroke-linejoin="round" stroke="rgb(28.62854%, 74.508667%, 71.759033%)" stroke-opacity="1" stroke-miterlimit="10" d="M 13.125033 59.459064 L 86.875355 59.459064 " transform="matrix(1.550046, 0, 0, 1.55452, -14.328782, -25.992794)"/>
</g>
<path fill-rule="nonzero" fill="rgb(91.758728%, 100%, 96.859741%)" fill-opacity="1" d="M 183.554688 53.457031 L 179.269531 43.523438 L 155.308594 43.523438 L 151.027344 53.457031 L 143.195312 53.457031 L 164.078125 6.46875 L 170.503906 6.46875 L 191.382812 53.457031 Z M 157.984375 37.414062 L 176.59375 37.414062 L 167.289062 15.800781 Z M 223.710938 18.550781 L 230.941406 18.550781 L 230.941406 66.210938 L 223.710938 66.210938 L 223.710938 47.683594 C 222.839844 50.503906 218.691406 54.128906 212.398438 54.128906 C 204.503906 54.128906 195.066406 48.21875 195.066406 36.003906 C 195.066406 23.988281 204.503906 17.949219 212.398438 17.949219 C 218.691406 17.949219 222.839844 21.707031 223.710938 23.988281 Z M 213.335938 47.683594 C 218.757812 47.683594 224.046875 43.855469 224.046875 36.003906 C 224.046875 28.21875 218.757812 24.390625 213.335938 24.390625 C 207.914062 24.390625 202.09375 28.285156 202.09375 36.003906 C 202.09375 43.789062 207.914062 47.683594 213.335938 47.683594 Z M 250.882812 53.992188 C 244.191406 53.992188 237.632812 49.628906 237.632812 38.757812 L 237.632812 18.550781 L 244.859375 18.550781 L 244.859375 38.351562 C 244.859375 45 248.007812 47.617188 252.492188 47.617188 C 258.246094 47.617188 261.996094 42.246094 262.796875 38.824219 L 262.796875 18.550781 L 270.027344 18.550781 L 270.027344 53.457031 L 262.796875 53.457031 L 262.796875 46.074219 C 262.128906 48.21875 258.113281 53.992188 250.882812 53.992188 Z M 293.386719 17.949219 C 299.675781 17.949219 303.824219 21.707031 304.695312 23.988281 L 304.695312 18.550781 L 311.925781 18.550781 L 311.925781 53.457031 L 304.695312 53.457031 L 304.695312 47.683594 C 303.824219 50.503906 299.675781 54.128906 293.386719 54.128906 C 285.488281 54.128906 276.050781 48.21875 276.050781 36.003906 C 276.050781 23.988281 285.488281 17.949219 293.386719 17.949219 Z M 294.320312 24.390625 C 288.902344 24.390625 283.078125 28.285156 283.078125 36.003906 C 283.078125 43.789062 288.902344 47.683594 294.320312 47.683594 C 299.742188 47.683594 305.03125 43.855469 305.03125 36.003906 C 305.03125 28.21875 299.742188 24.390625 294.320312 24.390625 Z M 326.984375 46.609375 L 346.863281 46.609375 L 346.863281 53.457031 L 319.621094 53.457031 L 319.621094 6.46875 L 326.984375 6.46875 Z M 367.207031 17.949219 C 373.5 17.949219 377.648438 21.707031 378.519531 23.988281 L 378.519531 18.550781 L 385.746094 18.550781 L 385.746094 53.457031 L 378.519531 53.457031 L 378.519531 47.683594 C 377.648438 50.503906 373.5 54.128906 367.207031 54.128906 C 359.3125 54.128906 349.875 48.21875 349.875 36.003906 C 349.875 23.988281 359.3125 17.949219 367.207031 17.949219 Z M 368.144531 24.390625 C 362.722656 24.390625 356.902344 28.285156 356.902344 36.003906 C 356.902344 43.789062 362.722656 47.683594 368.144531 47.683594 C 373.566406 47.683594 378.855469 43.855469 378.855469 36.003906 C 378.855469 28.21875 373.566406 24.390625 368.144531 24.390625 Z M 411.648438 17.949219 C 419.546875 17.949219 428.984375 23.988281 428.984375 36.003906 C 428.984375 48.21875 419.546875 54.128906 411.648438 54.128906 C 405.359375 54.128906 401.207031 50.503906 400.339844 47.683594 L 400.339844 53.457031 L 393.109375 53.457031 L 393.109375 6 L 400.339844 6 L 400.339844 23.988281 C 401.207031 21.707031 405.359375 17.949219 411.648438 17.949219 Z M 410.710938 47.683594 C 416.132812 47.683594 421.957031 43.789062 421.957031 36.003906 C 421.957031 28.285156 416.132812 24.390625 410.710938 24.390625 C 405.292969 24.390625 400.003906 28.21875 400.003906 36.003906 C 400.003906 43.855469 405.292969 47.683594 410.710938 47.683594 Z M 410.710938 47.683594 "/>
<g clip-path="url(#clip-1)">
<path fill-rule="nonzero" fill="rgb(28.62854%, 74.508667%, 71.759033%)" fill-opacity="1" d="M 173.871094 91.261719 C 175.234375 91.261719 176.097656 92.097656 176.097656 93.3125 C 176.097656 94.523438 175.234375 95.292969 173.871094 95.292969 L 172.914062 95.292969 L 172.914062 97.367188 L 171.773438 97.367188 L 171.773438 91.261719 Z M 173.808594 94.308594 C 174.496094 94.308594 174.957031 94.011719 174.957031 93.3125 C 174.957031 92.621094 174.496094 92.316406 173.808594 92.316406 L 172.914062 92.316406 L 172.914062 94.308594 Z M 185.960938 91.175781 C 187.632812 91.175781 189.113281 92.464844 189.113281 94.316406 C 189.113281 96.164062 187.632812 97.457031 185.960938 97.457031 C 184.292969 97.457031 182.8125 96.164062 182.8125 94.316406 C 182.8125 92.464844 184.292969 91.175781 185.960938 91.175781 Z M 185.960938 96.382812 C 187.023438 96.382812 187.917969 95.519531 187.917969 94.316406 C 187.917969 93.113281 187.023438 92.246094 185.960938 92.246094 C 184.890625 92.246094 183.996094 93.113281 183.996094 94.316406 C 183.996094 95.519531 184.890625 96.382812 185.960938 96.382812 Z M 200.761719 97.367188 L 199.550781 97.367188 L 198.195312 95.292969 L 197.183594 95.292969 L 197.183594 97.367188 L 196.046875 97.367188 L 196.046875 91.261719 L 198.140625 91.261719 C 199.507812 91.261719 200.367188 92.097656 200.367188 93.3125 C 200.367188 94.160156 199.953125 94.785156 199.238281 95.09375 Z M 197.183594 92.316406 L 197.183594 94.308594 L 198.082031 94.308594 C 198.769531 94.308594 199.230469 94.011719 199.230469 93.3125 C 199.230469 92.621094 198.769531 92.316406 198.082031 92.316406 Z M 220.558594 89.691406 L 219.472656 90.816406 L 218.628906 90.816406 L 219.222656 89.691406 Z M 221.074219 97.367188 L 220.570312 96.191406 L 217.558594 96.191406 L 217.054688 97.367188 L 215.84375 97.367188 L 218.558594 91.261719 L 219.578125 91.261719 L 222.28125 97.367188 Z M 217.960938 95.257812 L 220.167969 95.257812 L 219.0625 92.675781 Z M 234.742188 94.160156 C 234.976562 96.191406 233.644531 97.457031 232.019531 97.457031 C 230.3125 97.457031 228.867188 96.164062 228.867188 94.316406 C 228.867188 92.464844 230.347656 91.175781 232.019531 91.175781 C 232.808594 91.175781 233.523438 91.4375 234.054688 91.898438 L 233.367188 92.683594 C 233.019531 92.421875 232.558594 92.246094 232.085938 92.246094 C 230.949219 92.246094 230.050781 93.113281 230.050781 94.316406 C 230.050781 95.519531 230.921875 96.382812 232.019531 96.382812 C 232.886719 96.382812 233.503906 96.035156 233.6875 95.136719 L 232.175781 95.136719 L 232.175781 94.160156 Z M 245.1875 91.261719 L 246.328125 91.261719 L 246.328125 95.152344 C 246.328125 96.636719 245.277344 97.5 244.015625 97.5 C 242.746094 97.5 241.691406 96.636719 241.691406 95.152344 L 241.691406 91.261719 L 242.832031 91.261719 L 242.832031 95.152344 C 242.832031 96.113281 243.441406 96.425781 244.015625 96.425781 C 244.589844 96.425781 245.1875 96.113281 245.1875 95.152344 Z M 258.273438 97.367188 L 257.769531 96.191406 L 254.757812 96.191406 L 254.253906 97.367188 L 253.042969 97.367188 L 255.757812 91.261719 L 256.777344 91.261719 L 259.480469 97.367188 Z M 255.160156 95.257812 L 257.367188 95.257812 L 256.261719 92.675781 Z M 268.164062 91.15625 C 269.199219 91.15625 269.886719 91.820312 270.191406 92.421875 L 269.347656 92.917969 C 269.027344 92.441406 268.675781 92.167969 268.164062 92.167969 C 267.675781 92.167969 267.328125 92.457031 267.328125 92.851562 C 267.328125 93.226562 267.554688 93.441406 268.078125 93.636719 L 268.496094 93.792969 C 269.789062 94.253906 270.355469 94.820312 270.355469 95.695312 C 270.355469 96.878906 269.234375 97.5 268.199219 97.5 C 267.113281 97.5 266.257812 96.855469 265.980469 96 L 266.859375 95.535156 C 267.078125 96.027344 267.484375 96.460938 268.199219 96.460938 C 268.738281 96.460938 269.171875 96.199219 269.171875 95.710938 C 269.171875 95.214844 268.859375 94.996094 268.179688 94.742188 L 267.789062 94.601562 C 266.886719 94.273438 266.199219 93.816406 266.199219 92.804688 C 266.199219 91.847656 267.078125 91.15625 268.164062 91.15625 Z M 292.3125 91.261719 L 292.3125 97.367188 L 291.140625 97.367188 L 291.140625 93.828125 L 289.554688 97.367188 L 288.582031 97.367188 L 287.007812 93.84375 L 287.007812 97.367188 L 285.832031 97.367188 L 285.832031 91.261719 L 286.964844 91.261719 L 289.078125 95.832031 L 291.183594 91.261719 Z M 304.257812 97.367188 L 303.753906 96.191406 L 300.742188 96.191406 L 300.238281 97.367188 L 299.03125 97.367188 L 301.746094 91.261719 L 302.761719 91.261719 L 305.46875 97.367188 Z M 301.144531 95.257812 L 303.355469 95.257812 L 302.25 92.675781 Z M 313.324219 91.261719 L 313.324219 97.367188 L 312.183594 97.367188 L 312.183594 91.261719 Z M 322.351562 91.15625 C 323.386719 91.15625 324.074219 91.820312 324.378906 92.421875 L 323.535156 92.917969 C 323.214844 92.441406 322.867188 92.167969 322.351562 92.167969 C 321.867188 92.167969 321.519531 92.457031 321.519531 92.851562 C 321.519531 93.226562 321.746094 93.441406 322.265625 93.636719 L 322.683594 93.792969 C 323.980469 94.253906 324.546875 94.820312 324.546875 95.695312 C 324.546875 96.878906 323.421875 97.5 322.386719 97.5 C 321.300781 97.5 320.449219 96.855469 320.167969 96 L 321.046875 95.535156 C 321.265625 96.027344 321.675781 96.460938 322.386719 96.460938 C 322.925781 96.460938 323.363281 96.199219 323.363281 95.710938 C 323.363281 95.214844 323.050781 94.996094 322.371094 94.742188 L 321.980469 94.601562 C 321.074219 94.273438 320.386719 93.816406 320.386719 92.804688 C 320.386719 91.847656 321.265625 91.15625 322.351562 91.15625 Z M 341.160156 96.3125 L 343.632812 96.3125 L 343.632812 97.367188 L 340.023438 97.367188 L 340.023438 91.261719 L 341.160156 91.261719 Z M 351.660156 91.261719 L 351.660156 97.367188 L 350.523438 97.367188 L 350.523438 91.261719 Z M 365.207031 91.261719 L 365.207031 97.367188 L 364.03125 97.367188 L 364.03125 93.828125 L 362.449219 97.367188 L 361.476562 97.367188 L 359.902344 93.84375 L 359.902344 97.367188 L 358.726562 97.367188 L 358.726562 91.261719 L 359.855469 91.261719 L 361.972656 95.832031 L 364.078125 91.261719 Z M 374.367188 91.261719 C 375.734375 91.261719 376.59375 92.097656 376.59375 93.3125 C 376.59375 94.523438 375.734375 95.292969 374.367188 95.292969 L 373.410156 95.292969 L 373.410156 97.367188 L 372.269531 97.367188 L 372.269531 91.261719 Z M 374.308594 94.308594 C 374.992188 94.308594 375.457031 94.011719 375.457031 93.3125 C 375.457031 92.621094 374.996094 92.316406 374.308594 92.316406 L 373.410156 92.316406 L 373.410156 94.308594 Z M 388.320312 97.367188 L 387.816406 96.191406 L 384.808594 96.191406 L 384.300781 97.367188 L 383.09375 97.367188 L 385.808594 91.261719 L 386.824219 91.261719 L 389.53125 97.367188 Z M 385.207031 95.257812 L 387.417969 95.257812 L 386.3125 92.675781 Z M 398.214844 91.15625 C 399.25 91.15625 399.9375 91.820312 400.238281 92.421875 L 399.394531 92.917969 C 399.074219 92.441406 398.726562 92.167969 398.214844 92.167969 C 397.726562 92.167969 397.378906 92.457031 397.378906 92.851562 C 397.378906 93.226562 397.605469 93.441406 398.125 93.636719 L 398.542969 93.792969 C 399.839844 94.253906 400.40625 94.820312 400.40625 95.695312 C 400.40625 96.878906 399.28125 97.5 398.246094 97.5 C 397.160156 97.5 396.308594 96.855469 396.03125 96 L 396.910156 95.535156 C 397.125 96.027344 397.535156 96.460938 398.246094 96.460938 C 398.789062 96.460938 399.222656 96.199219 399.222656 95.710938 C 399.222656 95.214844 398.910156 94.996094 398.230469 94.742188 L 397.839844 94.601562 C 396.933594 94.273438 396.246094 93.816406 396.246094 92.804688 C 396.246094 91.847656 397.125 91.15625 398.214844 91.15625 Z M 398.214844 91.15625 "/>
</g>
</svg>
