<?xml version="1.0" encoding="UTF-8"?>
<svg xmlns="http://www.w3.org/2000/svg" xmlns:xlink="http://www.w3.org/1999/xlink" width="612" height="792" viewBox="0 0 612 792">
<defs>
<clipPath id="clip-0">
<path clip-rule="nonzero" d="M 6 62 L 118 62 L 118 66 L 6 66 Z M 6 62 "/>
</clipPath>
<clipPath id="clip-1">
<path clip-rule="nonzero" d="M 137 6 L 411.75 6 L 411.75 64 L 137 64 Z M 137 6 "/>
</clipPath>
<clipPath id="clip-2">
<path clip-rule="nonzero" d="M 137 86 L 357 86 L 357 93.75 L 137 93.75 Z M 137 86 "/>
</clipPath>
</defs>
<path fill="none" stroke-width="2" stroke-linecap="round" stroke-linejoin="round" stroke="rgb(28.62854%, 74.508667%, 71.759033%)" stroke-opacity="1" stroke-miterlimit="10" d="M 64.499228 50.293794 C 64.499228 42.286294 58.007833 35.793301 50.000641 35.793301 C 41.990822 35.793301 35.499427 42.286294 35.499427 50.293794 C 35.499427 53.770873 36.726251 56.959723 38.767455 59.459447 L 61.233827 59.459447 C 63.272404 56.959723 64.499228 53.770873 64.499228 50.293794 Z M 64.499228 50.293794 " transform="matrix(1.486945, 0, 0, 1.49079, -13.516148, -24.680602)"/>
<path fill="none" stroke-width="2" stroke-linecap="round" stroke-linejoin="round" stroke="rgb(28.62854%, 74.508667%, 71.759033%)" stroke-opacity="1" stroke-miterlimit="10" d="M 26.874883 65.624908 L 73.123772 65.624908 " transform="matrix(1.486945, 0, 0, 1.49079, -13.516148, -24.680602)"/>
<path fill="none" stroke-width="2" stroke-linecap="round" stroke-linejoin="round" stroke="rgb(28.62854%, 74.508667%, 71.759033%)" stroke-opacity="1" stroke-miterlimit="10" d="M 42.708002 77.206436 L 57.290653 77.206436 " transform="matrix(1.486945, 0, 0, 1.49079, -13.516148, -24.680602)"/>
<path fill="none" stroke-width="2" stroke-linecap="round" stroke-linejoin="round" stroke="rgb(28.62854%, 74.508667%, 71.759033%)" stroke-opacity="1" stroke-miterlimit="10" d="M 36.623797 71.415672 L 63.374858 71.415672 " transform="matrix(1.486945, 0, 0, 1.49079, -13.516148, -24.680602)"/>
<path fill="none" stroke-width="2" stroke-linecap="round" stroke-linejoin="round" stroke="rgb(28.62854%, 74.508667%, 71.759033%)" stroke-opacity="1" stroke-miterlimit="10" d="M 50.000641 32.043716 L 50.000641 22.794214 " transform="matrix(1.486945, 0, 0, 1.49079, -13.516148, -24.680602)"/>
<path fill="none" stroke-width="2" stroke-linecap="round" stroke-linejoin="round" stroke="rgb(28.62854%, 74.508667%, 71.759033%)" stroke-opacity="1" stroke-miterlimit="10" d="M 68.429267 50.293794 L 76.93034 50.293794 " transform="matrix(1.486945, 0, 0, 1.49079, -13.516148, -24.680602)"/>
<path fill="none" stroke-width="2" stroke-linecap="round" stroke-linejoin="round" stroke="rgb(28.62854%, 74.508667%, 71.759033%)" stroke-opacity="1" stroke-miterlimit="10" d="M 23.073569 50.293794 L 31.574642 50.293794 " transform="matrix(1.486945, 0, 0, 1.49079, -13.516148, -24.680602)"/>
<path fill="none" stroke-width="2" stroke-linecap="round" stroke-linejoin="round" stroke="rgb(28.62854%, 74.508667%, 71.759033%)" stroke-opacity="1" stroke-miterlimit="10" d="M 30.959917 31.255019 L 36.970565 37.263264 " transform="matrix(1.486945, 0, 0, 1.49079, -13.516148, -24.680602)"/>
<path fill="none" stroke-width="2" stroke-linecap="round" stroke-linejoin="round" stroke="rgb(28.62854%, 74.508667%, 71.759033%)" stroke-opacity="1" stroke-miterlimit="10" d="M 63.030717 37.265884 L 69.041365 31.255019 " transform="matrix(1.486945, 0, 0, 1.49079, -13.516148, -24.680602)"/>
<g clip-path="url(#clip-0)">
<path fill="none" stroke-width="2" stroke-linecap="round" stroke-linejoin="round" stroke="rgb(28.62854%, 74.508667%, 71.759033%)" stroke-opacity="1" stroke-miterlimit="10" d="M 13.125001 59.459447 L 86.876281 59.459447 " transform="matrix(1.486945, 0, 0, 1.49079, -13.516148, -24.680602)"/>
</g>
<g clip-path="url(#clip-1)">
<path fill-rule="nonzero" fill="rgb(91.758728%, 100%, 96.859741%)" fill-opacity="1" d="M 176.308594 51.511719 L 172.199219 41.984375 L 149.214844 41.984375 L 145.105469 51.511719 L 137.59375 51.511719 L 157.625 6.453125 L 163.789062 6.453125 L 183.820312 51.511719 Z M 151.785156 36.125 L 169.632812 36.125 L 160.707031 15.398438 Z M 214.832031 18.039062 L 221.765625 18.039062 L 221.765625 63.742188 L 214.832031 63.742188 L 214.832031 45.976562 C 214 48.679688 210.019531 52.15625 203.984375 52.15625 C 196.40625 52.15625 187.351562 46.488281 187.351562 34.773438 C 187.351562 23.253906 196.40625 17.457031 203.984375 17.457031 C 210.019531 17.457031 214 21.0625 214.832031 23.253906 Z M 204.882812 45.976562 C 210.082031 45.976562 215.152344 42.304688 215.152344 34.773438 C 215.152344 27.308594 210.082031 23.636719 204.882812 23.636719 C 199.679688 23.636719 194.09375 27.371094 194.09375 34.773438 C 194.09375 42.242188 199.679688 45.976562 204.882812 45.976562 Z M 240.902344 52.027344 C 234.480469 52.027344 228.1875 47.839844 228.1875 37.414062 L 228.1875 18.039062 L 235.121094 18.039062 L 235.121094 37.027344 C 235.121094 43.398438 238.140625 45.910156 242.441406 45.910156 C 247.964844 45.910156 251.558594 40.761719 252.328125 37.476562 L 252.328125 18.039062 L 259.261719 18.039062 L 259.261719 51.511719 L 252.328125 51.511719 L 252.328125 44.429688 C 251.6875 46.488281 247.835938 52.027344 240.902344 52.027344 Z M 281.671875 17.457031 C 287.707031 17.457031 291.6875 21.0625 292.519531 23.253906 L 292.519531 18.039062 L 299.457031 18.039062 L 299.457031 51.511719 L 292.519531 51.511719 L 292.519531 45.976562 C 291.6875 48.679688 287.707031 52.15625 281.671875 52.15625 C 274.09375 52.15625 265.042969 46.488281 265.042969 34.773438 C 265.042969 23.253906 274.09375 17.457031 281.671875 17.457031 Z M 282.570312 23.636719 C 277.367188 23.636719 271.78125 27.371094 271.78125 34.773438 C 271.78125 42.242188 277.367188 45.976562 282.570312 45.976562 C 287.769531 45.976562 292.84375 42.304688 292.84375 34.773438 C 292.84375 27.308594 287.769531 23.636719 282.570312 23.636719 Z M 313.902344 44.945312 L 332.96875 44.945312 L 332.96875 51.511719 L 306.839844 51.511719 L 306.839844 6.453125 L 313.902344 6.453125 Z M 352.488281 17.457031 C 358.523438 17.457031 362.503906 21.0625 363.339844 23.253906 L 363.339844 18.039062 L 370.273438 18.039062 L 370.273438 51.511719 L 363.339844 51.511719 L 363.339844 45.976562 C 362.503906 48.679688 358.523438 52.15625 352.488281 52.15625 C 344.914062 52.15625 335.859375 46.488281 335.859375 34.773438 C 335.859375 23.253906 344.914062 17.457031 352.488281 17.457031 Z M 353.386719 23.636719 C 348.1875 23.636719 342.601562 27.371094 342.601562 34.773438 C 342.601562 42.242188 348.1875 45.976562 353.386719 45.976562 C 358.589844 45.976562 363.660156 42.304688 363.660156 34.773438 C 363.660156 27.308594 358.589844 23.636719 353.386719 23.636719 Z M 395.121094 17.457031 C 402.695312 17.457031 411.75 23.253906 411.75 34.773438 C 411.75 46.488281 402.695312 52.15625 395.121094 52.15625 C 389.085938 52.15625 385.105469 48.679688 384.269531 45.976562 L 384.269531 51.511719 L 377.335938 51.511719 L 377.335938 6 L 384.269531 6 L 384.269531 23.253906 C 385.105469 21.0625 389.085938 17.457031 395.121094 17.457031 Z M 394.222656 45.976562 C 399.421875 45.976562 405.007812 42.242188 405.007812 34.773438 C 405.007812 27.371094 399.421875 23.636719 394.222656 23.636719 C 389.019531 23.636719 383.949219 27.308594 383.949219 34.773438 C 383.949219 42.304688 389.019531 45.976562 394.222656 45.976562 Z M 394.222656 45.976562 "/>
</g>
<g clip-path="url(#clip-2)">
<path fill-rule="nonzero" fill="rgb(28.62854%, 74.508667%, 71.759033%)" fill-opacity="1" d="M 139.605469 87.765625 C 140.917969 87.765625 141.742188 88.570312 141.742188 89.734375 C 141.742188 90.894531 140.917969 91.632812 139.605469 91.632812 L 138.6875 91.632812 L 138.6875 93.625 L 137.59375 93.625 L 137.59375 87.765625 Z M 139.546875 90.6875 C 140.207031 90.6875 140.648438 90.402344 140.648438 89.734375 C 140.648438 89.074219 140.207031 88.78125 139.546875 88.78125 L 138.6875 88.78125 L 138.6875 90.6875 Z M 151.207031 87.683594 C 152.808594 87.683594 154.226562 88.921875 154.226562 90.695312 C 154.226562 92.46875 152.808594 93.707031 151.207031 93.707031 C 149.605469 93.707031 148.183594 92.46875 148.183594 90.695312 C 148.183594 88.921875 149.605469 87.683594 151.207031 87.683594 Z M 151.207031 92.679688 C 152.222656 92.679688 153.082031 91.851562 153.082031 90.695312 C 153.082031 89.539062 152.222656 88.710938 151.207031 88.710938 C 150.179688 88.710938 149.320312 89.539062 149.320312 90.695312 C 149.320312 91.851562 150.179688 92.679688 151.207031 92.679688 Z M 165.402344 93.625 L 164.242188 93.625 L 162.9375 91.632812 L 161.972656 91.632812 L 161.972656 93.625 L 160.878906 93.625 L 160.878906 87.765625 L 162.890625 87.765625 C 164.199219 87.765625 165.027344 88.570312 165.027344 89.734375 C 165.027344 90.542969 164.625 91.148438 163.941406 91.441406 Z M 161.972656 88.78125 L 161.972656 90.6875 L 162.832031 90.6875 C 163.488281 90.6875 163.933594 90.402344 163.933594 89.734375 C 163.933594 89.074219 163.488281 88.78125 162.832031 88.78125 Z M 184.394531 86.261719 L 183.351562 87.339844 L 182.542969 87.339844 L 183.109375 86.261719 Z M 184.886719 93.625 L 184.402344 92.496094 L 181.515625 92.496094 L 181.03125 93.625 L 179.871094 93.625 L 182.476562 87.765625 L 183.453125 87.765625 L 186.046875 93.625 Z M 181.898438 91.597656 L 184.019531 91.597656 L 182.960938 89.121094 Z M 198 90.542969 C 198.222656 92.496094 196.945312 93.707031 195.386719 93.707031 C 193.75 93.707031 192.363281 92.46875 192.363281 90.695312 C 192.363281 88.921875 193.785156 87.683594 195.386719 87.683594 C 196.144531 87.683594 196.828125 87.933594 197.339844 88.378906 L 196.679688 89.128906 C 196.347656 88.878906 195.902344 88.710938 195.453125 88.710938 C 194.359375 88.710938 193.5 89.539062 193.5 90.695312 C 193.5 91.851562 194.335938 92.679688 195.386719 92.679688 C 196.222656 92.679688 196.8125 92.34375 196.988281 91.480469 L 195.535156 91.480469 L 195.535156 90.542969 Z M 208.019531 87.765625 L 209.113281 87.765625 L 209.113281 91.5 C 209.113281 92.921875 208.105469 93.75 206.894531 93.75 C 205.675781 93.75 204.667969 92.921875 204.667969 91.5 L 204.667969 87.765625 L 205.757812 87.765625 L 205.757812 91.5 C 205.757812 92.417969 206.34375 92.71875 206.894531 92.71875 C 207.445312 92.71875 208.019531 92.417969 208.019531 91.5 Z M 220.574219 93.625 L 220.089844 92.496094 L 217.199219 92.496094 L 216.71875 93.625 L 215.558594 93.625 L 218.160156 87.765625 L 219.136719 87.765625 L 221.734375 93.625 Z M 217.585938 91.597656 L 219.703125 91.597656 L 218.644531 89.121094 Z M 230.0625 87.667969 C 231.054688 87.667969 231.714844 88.300781 232.003906 88.878906 L 231.195312 89.355469 C 230.886719 88.898438 230.554688 88.636719 230.0625 88.636719 C 229.59375 88.636719 229.261719 88.914062 229.261719 89.289062 C 229.261719 89.648438 229.476562 89.859375 229.976562 90.042969 L 230.378906 90.195312 C 231.621094 90.636719 232.164062 91.179688 232.164062 92.015625 C 232.164062 93.15625 231.085938 93.75 230.09375 93.75 C 229.050781 93.75 228.234375 93.128906 227.964844 92.308594 L 228.808594 91.867188 C 229.019531 92.335938 229.410156 92.753906 230.09375 92.753906 C 230.613281 92.753906 231.027344 92.503906 231.027344 92.035156 C 231.027344 91.558594 230.730469 91.347656 230.078125 91.105469 L 229.703125 90.972656 C 228.835938 90.652344 228.175781 90.21875 228.175781 89.246094 C 228.175781 88.328125 229.019531 87.667969 230.0625 87.667969 Z M 253.226562 87.765625 L 253.226562 93.625 L 252.101562 93.625 L 252.101562 90.226562 L 250.582031 93.625 L 249.648438 93.625 L 248.136719 90.242188 L 248.136719 93.625 L 247.011719 93.625 L 247.011719 87.765625 L 248.09375 87.765625 L 250.125 92.152344 L 252.144531 87.765625 Z M 264.6875 93.625 L 264.203125 92.496094 L 261.316406 92.496094 L 260.832031 93.625 L 259.671875 93.625 L 262.273438 87.765625 L 263.25 87.765625 L 265.847656 93.625 Z M 261.699219 91.597656 L 263.816406 91.597656 L 262.757812 89.121094 Z M 273.382812 87.765625 L 273.382812 93.625 L 272.289062 93.625 L 272.289062 87.765625 Z M 282.042969 87.667969 C 283.039062 87.667969 283.695312 88.300781 283.988281 88.878906 L 283.179688 89.355469 C 282.871094 88.898438 282.535156 88.636719 282.042969 88.636719 C 281.578125 88.636719 281.242188 88.914062 281.242188 89.289062 C 281.242188 89.648438 281.460938 89.859375 281.960938 90.042969 L 282.363281 90.195312 C 283.605469 90.636719 284.148438 91.179688 284.148438 92.015625 C 284.148438 93.15625 283.070312 93.75 282.078125 93.75 C 281.035156 93.75 280.214844 93.128906 279.949219 92.308594 L 280.792969 91.867188 C 281 92.335938 281.394531 92.753906 282.078125 92.753906 C 282.59375 92.753906 283.011719 92.503906 283.011719 92.035156 C 283.011719 91.558594 282.710938 91.347656 282.0625 91.105469 L 281.683594 90.972656 C 280.816406 90.652344 280.160156 90.21875 280.160156 89.246094 C 280.160156 88.328125 281 87.667969 282.042969 87.667969 Z M 300.085938 92.613281 L 302.457031 92.613281 L 302.457031 93.625 L 298.992188 93.625 L 298.992188 87.765625 L 300.085938 87.765625 Z M 310.160156 87.765625 L 310.160156 93.625 L 309.066406 93.625 L 309.066406 87.765625 Z M 323.152344 87.765625 L 323.152344 93.625 L 322.027344 93.625 L 322.027344 90.226562 L 320.507812 93.625 L 319.574219 93.625 L 318.0625 90.242188 L 318.0625 93.625 L 316.9375 93.625 L 316.9375 87.765625 L 318.019531 87.765625 L 320.050781 92.152344 L 322.070312 87.765625 Z M 331.941406 87.765625 C 333.25 87.765625 334.078125 88.570312 334.078125 89.734375 C 334.078125 90.894531 333.25 91.632812 331.941406 91.632812 L 331.023438 91.632812 L 331.023438 93.625 L 329.929688 93.625 L 329.929688 87.765625 Z M 331.882812 90.6875 C 332.542969 90.6875 332.984375 90.402344 332.984375 89.734375 C 332.984375 89.074219 332.542969 88.78125 331.882812 88.78125 L 331.023438 88.78125 L 331.023438 90.6875 Z M 345.328125 93.625 L 344.84375 92.496094 L 341.957031 92.496094 L 341.472656 93.625 L 340.3125 93.625 L 342.914062 87.765625 L 343.890625 87.765625 L 346.488281 93.625 Z M 342.339844 91.597656 L 344.460938 91.597656 L 343.398438 89.121094 Z M 354.816406 87.667969 C 355.808594 87.667969 356.46875 88.300781 356.761719 88.878906 L 355.949219 89.355469 C 355.640625 88.898438 355.308594 88.636719 354.816406 88.636719 C 354.347656 88.636719 354.015625 88.914062 354.015625 89.289062 C 354.015625 89.648438 354.230469 89.859375 354.730469 90.042969 L 355.132812 90.195312 C 356.375 90.636719 356.917969 91.179688 356.917969 92.015625 C 356.917969 93.15625 355.84375 93.75 354.847656 93.75 C 353.804688 93.75 352.988281 93.128906 352.722656 92.308594 L 353.5625 91.867188 C 353.773438 92.335938 354.164062 92.753906 354.847656 92.753906 C 355.367188 92.753906 355.785156 92.503906 355.785156 92.035156 C 355.785156 91.558594 355.484375 91.347656 354.832031 91.105469 L 354.457031 90.972656 C 353.589844 90.652344 352.929688 90.21875 352.929688 89.246094 C 352.929688 88.328125 353.773438 87.667969 354.816406 87.667969 Z M 354.816406 87.667969 "/>
</g>
</svg>
