<?xml version="1.0" encoding="UTF-8"?>
<svg xmlns="http://www.w3.org/2000/svg" xmlns:xlink="http://www.w3.org/1999/xlink" width="612" height="792" viewBox="0 0 612 792">
<path fill-rule="nonzero" fill="rgb(91.758728%, 100%, 96.859741%)" fill-opacity="1" d="M 58.957031 68.128906 L 53.335938 55.125 L 21.894531 55.125 L 16.273438 68.128906 L 6 68.128906 L 33.402344 6.617188 L 41.832031 6.617188 L 69.230469 68.128906 Z M 25.410156 47.125 L 49.824219 47.125 L 37.617188 18.832031 Z M 111.648438 22.433594 L 121.132812 22.433594 L 121.132812 84.824219 L 111.648438 84.824219 L 111.648438 60.570312 C 110.507812 64.261719 105.0625 69.007812 96.808594 69.007812 C 86.445312 69.007812 74.0625 61.273438 74.0625 45.28125 C 74.0625 29.550781 86.445312 21.640625 96.808594 21.640625 C 105.0625 21.640625 110.507812 26.5625 111.648438 29.550781 Z M 98.039062 60.570312 C 105.152344 60.570312 112.089844 55.5625 112.089844 45.28125 C 112.089844 35.085938 105.152344 30.078125 98.039062 30.078125 C 90.925781 30.078125 83.285156 35.175781 83.285156 45.28125 C 83.285156 55.476562 90.925781 60.570312 98.039062 60.570312 Z M 147.304688 68.832031 C 138.523438 68.832031 129.917969 63.121094 129.917969 48.882812 L 129.917969 22.433594 L 139.402344 22.433594 L 139.402344 48.355469 C 139.402344 57.054688 143.527344 60.484375 149.414062 60.484375 C 156.964844 60.484375 161.882812 53.453125 162.9375 48.972656 L 162.9375 22.433594 L 172.421875 22.433594 L 172.421875 68.128906 L 162.9375 68.128906 L 162.9375 58.460938 C 162.058594 61.273438 156.789062 68.832031 147.304688 68.832031 Z M 203.074219 21.640625 C 211.328125 21.640625 216.773438 26.5625 217.914062 29.550781 L 217.914062 22.433594 L 227.398438 22.433594 L 227.398438 68.128906 L 217.914062 68.128906 L 217.914062 60.570312 C 216.773438 64.261719 211.328125 69.007812 203.074219 69.007812 C 192.710938 69.007812 180.328125 61.273438 180.328125 45.28125 C 180.328125 29.550781 192.710938 21.640625 203.074219 21.640625 Z M 204.300781 30.078125 C 197.1875 30.078125 189.546875 35.175781 189.546875 45.28125 C 189.546875 55.476562 197.1875 60.570312 204.300781 60.570312 C 211.414062 60.570312 218.355469 55.5625 218.355469 45.28125 C 218.355469 35.085938 211.414062 30.078125 204.300781 30.078125 Z M 247.160156 59.164062 L 273.242188 59.164062 L 273.242188 68.128906 L 237.5 68.128906 L 237.5 6.617188 L 247.160156 6.617188 Z M 299.941406 21.640625 C 308.195312 21.640625 313.640625 26.5625 314.78125 29.550781 L 314.78125 22.433594 L 324.265625 22.433594 L 324.265625 68.128906 L 314.78125 68.128906 L 314.78125 60.570312 C 313.640625 64.261719 308.195312 69.007812 299.941406 69.007812 C 289.578125 69.007812 277.195312 61.273438 277.195312 45.28125 C 277.195312 29.550781 289.578125 21.640625 299.941406 21.640625 Z M 301.167969 30.078125 C 294.054688 30.078125 286.414062 35.175781 286.414062 45.28125 C 286.414062 55.476562 294.054688 60.570312 301.167969 60.570312 C 308.285156 60.570312 315.222656 55.5625 315.222656 45.28125 C 315.222656 35.085938 308.285156 30.078125 301.167969 30.078125 Z M 358.253906 21.640625 C 368.617188 21.640625 381 29.550781 381 45.28125 C 381 61.273438 368.617188 69.007812 358.253906 69.007812 C 350 69.007812 344.554688 64.261719 343.414062 60.570312 L 343.414062 68.128906 L 333.925781 68.128906 L 333.925781 6 L 343.414062 6 L 343.414062 29.550781 C 344.554688 26.5625 350 21.640625 358.253906 21.640625 Z M 357.023438 60.570312 C 364.136719 60.570312 371.777344 55.476562 371.777344 45.28125 C 371.777344 35.175781 364.136719 30.078125 357.023438 30.078125 C 349.910156 30.078125 342.972656 35.085938 342.972656 45.28125 C 342.972656 55.5625 349.910156 60.570312 357.023438 60.570312 Z M 357.023438 60.570312 "/>
<path fill-rule="nonzero" fill="rgb(28.62854%, 74.508667%, 71.759033%)" fill-opacity="1" d="M 46.25 108.832031 C 48.042969 108.832031 49.171875 109.929688 49.171875 111.515625 C 49.171875 113.105469 48.042969 114.109375 46.25 114.109375 L 44.996094 114.109375 L 44.996094 116.828125 L 43.5 116.828125 L 43.5 108.832031 Z M 46.171875 112.820312 C 47.074219 112.820312 47.679688 112.429688 47.679688 111.515625 C 47.679688 110.613281 47.074219 110.214844 46.171875 110.214844 L 44.996094 110.214844 L 44.996094 112.820312 Z M 62.117188 108.71875 C 64.308594 108.71875 66.25 110.410156 66.25 112.832031 C 66.25 115.25 64.308594 116.941406 62.117188 116.941406 C 59.925781 116.941406 57.984375 115.25 57.984375 112.832031 C 57.984375 110.410156 59.925781 108.71875 62.117188 108.71875 Z M 62.117188 115.539062 C 63.511719 115.539062 64.6875 114.40625 64.6875 112.832031 C 64.6875 111.253906 63.511719 110.125 62.117188 110.125 C 60.714844 110.125 59.539062 111.253906 59.539062 112.832031 C 59.539062 114.40625 60.714844 115.539062 62.117188 115.539062 Z M 81.535156 116.828125 L 79.949219 116.828125 L 78.167969 114.109375 L 76.84375 114.109375 L 76.84375 116.828125 L 75.347656 116.828125 L 75.347656 108.832031 L 78.097656 108.832031 C 79.890625 108.832031 81.019531 109.929688 81.019531 111.515625 C 81.019531 112.625 80.472656 113.445312 79.539062 113.847656 Z M 76.84375 110.214844 L 76.84375 112.820312 L 78.019531 112.820312 C 78.921875 112.820312 79.527344 112.429688 79.527344 111.515625 C 79.527344 110.613281 78.921875 110.214844 78.019531 110.214844 Z M 107.515625 106.777344 L 106.089844 108.25 L 104.980469 108.25 L 105.757812 106.777344 Z M 108.1875 116.828125 L 107.527344 115.285156 L 103.578125 115.285156 L 102.914062 116.828125 L 101.328125 116.828125 L 104.890625 108.832031 L 106.226562 108.832031 L 109.777344 116.828125 Z M 104.101562 114.0625 L 107.003906 114.0625 L 105.550781 110.683594 Z M 126.121094 112.625 C 126.429688 115.285156 124.683594 116.941406 122.550781 116.941406 C 120.3125 116.941406 118.417969 115.25 118.417969 112.832031 C 118.417969 110.410156 120.359375 108.71875 122.550781 108.71875 C 123.589844 108.71875 124.523438 109.0625 125.21875 109.667969 L 124.320312 110.695312 C 123.863281 110.351562 123.257812 110.125 122.640625 110.125 C 121.144531 110.125 119.96875 111.253906 119.96875 112.832031 C 119.96875 114.40625 121.109375 115.539062 122.550781 115.539062 C 123.691406 115.539062 124.5 115.082031 124.742188 113.902344 L 122.753906 113.902344 L 122.753906 112.625 Z M 139.832031 108.832031 L 141.328125 108.832031 L 141.328125 113.925781 C 141.328125 115.867188 139.945312 117 138.289062 117 C 136.625 117 135.242188 115.867188 135.242188 113.925781 L 135.242188 108.832031 L 136.738281 108.832031 L 136.738281 113.925781 C 136.738281 115.183594 137.539062 115.59375 138.289062 115.59375 C 139.042969 115.59375 139.832031 115.183594 139.832031 113.925781 Z M 157 116.828125 L 156.339844 115.285156 L 152.386719 115.285156 L 151.726562 116.828125 L 150.140625 116.828125 L 153.703125 108.832031 L 155.035156 108.832031 L 158.585938 116.828125 Z M 152.914062 114.0625 L 155.8125 114.0625 L 154.363281 110.683594 Z M 169.980469 108.695312 C 171.335938 108.695312 172.238281 109.5625 172.640625 110.351562 L 171.53125 111.003906 C 171.109375 110.375 170.652344 110.019531 169.980469 110.019531 C 169.339844 110.019531 168.882812 110.398438 168.882812 110.910156 C 168.882812 111.402344 169.179688 111.6875 169.863281 111.9375 L 170.414062 112.144531 C 172.113281 112.75 172.855469 113.492188 172.855469 114.636719 C 172.855469 116.1875 171.382812 117 170.023438 117 C 168.597656 117 167.480469 116.152344 167.113281 115.035156 L 168.265625 114.429688 C 168.550781 115.070312 169.089844 115.640625 170.023438 115.640625 C 170.734375 115.640625 171.304688 115.296875 171.304688 114.65625 C 171.304688 114.007812 170.890625 113.722656 170.003906 113.390625 L 169.488281 113.207031 C 168.300781 112.773438 167.398438 112.179688 167.398438 110.855469 C 167.398438 109.597656 168.550781 108.695312 169.980469 108.695312 Z M 201.667969 108.832031 L 201.667969 116.828125 L 200.125 116.828125 L 200.125 112.191406 L 198.050781 116.828125 L 196.769531 116.828125 L 194.703125 112.214844 L 194.703125 116.828125 L 193.164062 116.828125 L 193.164062 108.832031 L 194.648438 108.832031 L 197.421875 114.816406 L 200.183594 108.832031 Z M 217.339844 116.828125 L 216.679688 115.285156 L 212.730469 115.285156 L 212.066406 116.828125 L 210.480469 116.828125 L 214.042969 108.832031 L 215.378906 108.832031 L 218.925781 116.828125 Z M 213.253906 114.0625 L 216.152344 114.0625 L 214.703125 110.683594 Z M 229.234375 108.832031 L 229.234375 116.828125 L 227.738281 116.828125 L 227.738281 108.832031 Z M 241.082031 108.695312 C 242.441406 108.695312 243.34375 109.5625 243.742188 110.351562 L 242.636719 111.003906 C 242.214844 110.375 241.757812 110.019531 241.082031 110.019531 C 240.445312 110.019531 239.988281 110.398438 239.988281 110.910156 C 239.988281 111.402344 240.285156 111.6875 240.96875 111.9375 L 241.515625 112.144531 C 243.21875 112.75 243.960938 113.492188 243.960938 114.636719 C 243.960938 116.1875 242.488281 117 241.128906 117 C 239.703125 117 238.582031 116.152344 238.21875 115.035156 L 239.371094 114.429688 C 239.65625 115.070312 240.195312 115.640625 241.128906 115.640625 C 241.835938 115.640625 242.40625 115.296875 242.40625 114.65625 C 242.40625 114.007812 241.996094 113.722656 241.105469 113.390625 L 240.59375 113.207031 C 239.40625 112.773438 238.503906 112.179688 238.503906 110.855469 C 238.503906 109.597656 239.65625 108.695312 241.082031 108.695312 Z M 265.761719 115.445312 L 269.003906 115.445312 L 269.003906 116.828125 L 264.269531 116.828125 L 264.269531 108.832031 L 265.761719 108.832031 Z M 279.542969 108.832031 L 279.542969 116.828125 L 278.046875 116.828125 L 278.046875 108.832031 Z M 297.316406 108.832031 L 297.316406 116.828125 L 295.773438 116.828125 L 295.773438 112.191406 L 293.695312 116.828125 L 292.417969 116.828125 L 290.351562 112.214844 L 290.351562 116.828125 L 288.808594 116.828125 L 288.808594 108.832031 L 290.292969 108.832031 L 293.066406 114.816406 L 295.832031 108.832031 Z M 309.335938 108.832031 C 311.125 108.832031 312.257812 109.929688 312.257812 111.515625 C 312.257812 113.105469 311.125 114.109375 309.335938 114.109375 L 308.078125 114.109375 L 308.078125 116.828125 L 306.582031 116.828125 L 306.582031 108.832031 Z M 309.253906 112.820312 C 310.15625 112.820312 310.761719 112.429688 310.761719 111.515625 C 310.761719 110.613281 310.15625 110.214844 309.253906 110.214844 L 308.078125 110.214844 L 308.078125 112.820312 Z M 327.644531 116.828125 L 326.980469 115.285156 L 323.03125 115.285156 L 322.371094 116.828125 L 320.785156 116.828125 L 324.34375 108.832031 L 325.679688 108.832031 L 329.230469 116.828125 Z M 323.558594 114.0625 L 326.457031 114.0625 L 325.007812 110.683594 Z M 340.625 108.695312 C 341.980469 108.695312 342.882812 109.5625 343.28125 110.351562 L 342.175781 111.003906 C 341.753906 110.375 341.296875 110.019531 340.625 110.019531 C 339.984375 110.019531 339.527344 110.398438 339.527344 110.910156 C 339.527344 111.402344 339.824219 111.6875 340.507812 111.9375 L 341.058594 112.144531 C 342.757812 112.75 343.5 113.492188 343.5 114.636719 C 343.5 116.1875 342.027344 117 340.667969 117 C 339.242188 117 338.125 116.152344 337.757812 115.035156 L 338.910156 114.429688 C 339.195312 115.070312 339.734375 115.640625 340.667969 115.640625 C 341.375 115.640625 341.949219 115.296875 341.949219 114.65625 C 341.949219 114.007812 341.535156 113.722656 340.644531 113.390625 L 340.132812 113.207031 C 338.945312 112.773438 338.042969 112.179688 338.042969 110.855469 C 338.042969 109.597656 339.195312 108.695312 340.625 108.695312 Z M 340.625 108.695312 "/>
</svg>
