<?xml version="1.0" encoding="UTF-8"?>
<svg xmlns="http://www.w3.org/2000/svg" xmlns:xlink="http://www.w3.org/1999/xlink" width="612" height="792" viewBox="0 0 612 792">
<defs>
<clipPath id="clip-0">
<path clip-rule="nonzero" d="M 191 6 L 196 6 L 196 27 L 191 27 Z M 191 6 "/>
</clipPath>
<clipPath id="clip-1">
<path clip-rule="nonzero" d="M 6 137 L 381 137 L 381 216.75 L 6 216.75 Z M 6 137 "/>
</clipPath>
</defs>
<path fill="none" stroke-width="2" stroke-linecap="round" stroke-linejoin="round" stroke="rgb(28.62854%, 74.508667%, 71.759033%)" stroke-opacity="1" stroke-miterlimit="10" d="M 64.500463 50.292186 C 64.500463 42.284782 58.008865 35.793277 50 35.793277 C 41.991134 35.793277 35.499536 42.284782 35.499536 50.292186 C 35.499536 53.771079 36.726794 56.960225 38.768382 59.458581 L 61.233538 59.458581 C 63.273206 56.960225 64.500463 53.771079 64.500463 50.292186 Z M 64.500463 50.292186 " transform="matrix(2.033879, 0, 0, 2.035714, 91.806054, -40.400019)"/>
<path fill="none" stroke-width="2" stroke-linecap="round" stroke-linejoin="round" stroke="rgb(28.62854%, 74.508667%, 71.759033%)" stroke-opacity="1" stroke-miterlimit="10" d="M 26.874161 65.625798 L 73.125839 65.625798 " transform="matrix(2.033879, 0, 0, 2.035714, 91.806054, -40.400019)"/>
<path fill="none" stroke-width="2" stroke-linecap="round" stroke-linejoin="round" stroke="rgb(28.62854%, 74.508667%, 71.759033%)" stroke-opacity="1" stroke-miterlimit="10" d="M 42.709436 77.20612 L 57.290564 77.20612 " transform="matrix(2.033879, 0, 0, 2.035714, 91.806054, -40.400019)"/>
<path fill="none" stroke-width="2" stroke-linecap="round" stroke-linejoin="round" stroke="rgb(28.62854%, 74.508667%, 71.759033%)" stroke-opacity="1" stroke-miterlimit="10" d="M 36.625003 71.414999 L 63.374997 71.414999 " transform="matrix(2.033879, 0, 0, 2.035714, 91.806054, -40.400019)"/>
<g clip-path="url(#clip-0)">
<path fill="none" stroke-width="2" stroke-linecap="round" stroke-linejoin="round" stroke="rgb(28.62854%, 74.508667%, 71.759033%)" stroke-opacity="1" stroke-miterlimit="10" d="M 50 32.043824 L 50 22.792999 " transform="matrix(2.033879, 0, 0, 2.035714, 91.806054, -40.400019)"/>
</g>
<path fill="none" stroke-width="2" stroke-linecap="round" stroke-linejoin="round" stroke="rgb(28.62854%, 74.508667%, 71.759033%)" stroke-opacity="1" stroke-miterlimit="10" d="M 68.428073 50.292186 L 76.93053 50.292186 " transform="matrix(2.033879, 0, 0, 2.035714, 91.806054, -40.400019)"/>
<path fill="none" stroke-width="2" stroke-linecap="round" stroke-linejoin="round" stroke="rgb(28.62854%, 74.508667%, 71.759033%)" stroke-opacity="1" stroke-miterlimit="10" d="M 23.073311 50.292186 L 31.573848 50.292186 " transform="matrix(2.033879, 0, 0, 2.035714, 91.806054, -40.400019)"/>
<path fill="none" stroke-width="2" stroke-linecap="round" stroke-linejoin="round" stroke="rgb(28.62854%, 74.508667%, 71.759033%)" stroke-opacity="1" stroke-miterlimit="10" d="M 30.959259 31.253254 L 36.970709 37.263124 " transform="matrix(2.033879, 0, 0, 2.035714, 91.806054, -40.400019)"/>
<path fill="none" stroke-width="2" stroke-linecap="round" stroke-linejoin="round" stroke="rgb(28.62854%, 74.508667%, 71.759033%)" stroke-opacity="1" stroke-miterlimit="10" d="M 63.031211 37.265043 L 69.042662 31.253254 " transform="matrix(2.033879, 0, 0, 2.035714, 91.806054, -40.400019)"/>
<path fill="none" stroke-width="2" stroke-linecap="round" stroke-linejoin="round" stroke="rgb(28.62854%, 74.508667%, 71.759033%)" stroke-opacity="1" stroke-miterlimit="10" d="M 13.124649 59.458581 L 86.875351 59.458581 " transform="matrix(2.033879, 0, 0, 2.035714, 91.806054, -40.400019)"/>
<g clip-path="url(#clip-1)">
<path fill-rule="nonzero" fill="rgb(91.758728%, 100%, 96.859741%)" fill-opacity="1" d="M 58.957031 200.050781 L 53.335938 187.039062 L 21.898438 187.039062 L 16.277344 200.050781 L 6 200.050781 L 33.402344 138.519531 L 41.832031 138.519531 L 69.234375 200.050781 Z M 25.410156 179.039062 L 49.824219 179.039062 L 37.617188 150.738281 Z M 111.652344 154.339844 L 121.136719 154.339844 L 121.136719 216.75 L 111.652344 216.75 L 111.652344 192.488281 C 110.507812 196.179688 105.0625 200.929688 96.808594 200.929688 C 86.445312 200.929688 74.0625 193.191406 74.0625 177.195312 C 74.0625 161.460938 86.445312 153.550781 96.808594 153.550781 C 105.0625 153.550781 110.507812 158.472656 111.652344 161.460938 Z M 98.039062 192.488281 C 105.152344 192.488281 112.089844 187.480469 112.089844 177.195312 C 112.089844 167 105.152344 161.988281 98.039062 161.988281 C 90.925781 161.988281 83.285156 167.085938 83.285156 177.195312 C 83.285156 187.390625 90.925781 192.488281 98.039062 192.488281 Z M 147.304688 200.753906 C 138.523438 200.753906 129.917969 195.039062 129.917969 180.796875 L 129.917969 154.339844 L 139.402344 154.339844 L 139.402344 180.269531 C 139.402344 188.972656 143.53125 192.402344 149.414062 192.402344 C 156.964844 192.402344 161.882812 185.371094 162.9375 180.886719 L 162.9375 154.339844 L 172.421875 154.339844 L 172.421875 200.050781 L 162.9375 200.050781 L 162.9375 190.378906 C 162.058594 193.191406 156.789062 200.753906 147.304688 200.753906 Z M 203.074219 153.550781 C 211.328125 153.550781 216.773438 158.472656 217.914062 161.460938 L 217.914062 154.339844 L 227.398438 154.339844 L 227.398438 200.050781 L 217.914062 200.050781 L 217.914062 192.488281 C 216.773438 196.179688 211.328125 200.929688 203.074219 200.929688 C 192.710938 200.929688 180.328125 193.191406 180.328125 177.195312 C 180.328125 161.460938 192.710938 153.550781 203.074219 153.550781 Z M 204.300781 161.988281 C 197.1875 161.988281 189.546875 167.085938 189.546875 177.195312 C 189.546875 187.390625 197.1875 192.488281 204.300781 192.488281 C 211.414062 192.488281 218.351562 187.480469 218.351562 177.195312 C 218.351562 167 211.414062 161.988281 204.300781 161.988281 Z M 247.160156 191.082031 L 273.242188 191.082031 L 273.242188 200.050781 L 237.5 200.050781 L 237.5 138.519531 L 247.160156 138.519531 Z M 299.9375 153.550781 C 308.195312 153.550781 313.640625 158.472656 314.78125 161.460938 L 314.78125 154.339844 L 324.265625 154.339844 L 324.265625 200.050781 L 314.78125 200.050781 L 314.78125 192.488281 C 313.640625 196.179688 308.195312 200.929688 299.9375 200.929688 C 289.578125 200.929688 277.195312 193.191406 277.195312 177.195312 C 277.195312 161.460938 289.578125 153.550781 299.9375 153.550781 Z M 301.167969 161.988281 C 294.054688 161.988281 286.414062 167.085938 286.414062 177.195312 C 286.414062 187.390625 294.054688 192.488281 301.167969 192.488281 C 308.28125 192.488281 315.21875 187.480469 315.21875 177.195312 C 315.21875 167 308.28125 161.988281 301.167969 161.988281 Z M 358.253906 153.550781 C 368.617188 153.550781 381 161.460938 381 177.195312 C 381 193.191406 368.617188 200.929688 358.253906 200.929688 C 349.996094 200.929688 344.550781 196.179688 343.410156 192.488281 L 343.410156 200.050781 L 333.925781 200.050781 L 333.925781 137.902344 L 343.410156 137.902344 L 343.410156 161.460938 C 344.550781 158.472656 349.996094 153.550781 358.253906 153.550781 Z M 357.023438 192.488281 C 364.136719 192.488281 371.777344 187.390625 371.777344 177.195312 C 371.777344 167.085938 364.136719 161.988281 357.023438 161.988281 C 349.910156 161.988281 342.972656 167 342.972656 177.195312 C 342.972656 187.480469 349.910156 192.488281 357.023438 192.488281 Z M 357.023438 192.488281 "/>
</g>
</svg>
