<?xml version="1.0" encoding="UTF-8"?>
<svg id="Camada_2" xmlns="http://www.w3.org/2000/svg" viewBox="0 0 400.6 394.47">
  <defs>
    <style>
      .cls-1, .cls-2 {
        fill: #fff;
      }

      .cls-2 {
        font-family: Virgo01, 'Virgo 01';
        font-size: 31px;
        letter-spacing: .1em;
      }

      .cls-3 {
        fill: #55b8ca;
      }
    </style>
  </defs>
  <rect class="cls-3" width="400.6" height="394.47"/>
  <g>
    <path class="cls-1" d="M118.73,202.9c8.98,21.29,25.89,38.4,47.04,47.64,3.17-51.82-40.38-48.45-47.04-47.64Z"/>
    <path class="cls-1" d="M201.82,77.76c-19.8,0-38.1,6.39-52.97,17.21,4.65,1.19,15.56,4.29,17.08,7.49,1.94,4.09-22.74,28.26-26.49,30.98-2.91,2.12-16.41,3.1-22.28,3.44-3.55,9.67-5.48,20.13-5.48,31.03,0,3.46.2,6.87.58,10.22,7.64-1.03,88.08-9.77,78.18,79.21,3.73.47,7.52.71,11.38.71,49.78,0,90.14-40.36,90.14-90.14s-40.36-90.14-90.14-90.14ZM226.45,135.95c-9.65,0-17.47-7.82-17.47-17.47s7.82-17.47,17.47-17.47,17.47,7.82,17.47,17.47-7.82,17.47-17.47,17.47Z"/>
  </g>
  <text class="cls-2" transform="translate(101.28 295.69)"><tspan x="0" y="0">AQUALAB</tspan></text>
</svg>