<?xml version="1.0" encoding="UTF-8" standalone="no"?>
<svg
   id="Camada_2"
   viewBox="0 0 255.32603 42.492359"
   version="1.1"
   sodipodi:docname="Logo com nome (Horizontal).svg"
   width="255.32603"
   height="42.492359"
   inkscape:version="1.3.2 (091e20e, 2023-11-25, custom)"
   inkscape:export-filename="Logo com nome (Horizontal).png"
   inkscape:export-xdpi="96"
   inkscape:export-ydpi="96"
   xmlns:inkscape="http://www.inkscape.org/namespaces/inkscape"
   xmlns:sodipodi="http://sodipodi.sourceforge.net/DTD/sodipodi-0.dtd"
   xmlns="http://www.w3.org/2000/svg"
   xmlns:svg="http://www.w3.org/2000/svg">
  <sodipodi:namedview
     id="namedview2"
     pagecolor="#ffffff"
     bordercolor="#000000"
     borderopacity="0.25"
     inkscape:showpageshadow="2"
     inkscape:pageopacity="0.0"
     inkscape:pagecheckerboard="0"
     inkscape:deskcolor="#d1d1d1"
     inkscape:zoom="2.0609932"
     inkscape:cx="134.88642"
     inkscape:cy="28.384373"
     inkscape:window-width="1920"
     inkscape:window-height="1009"
     inkscape:window-x="1912"
     inkscape:window-y="-8"
     inkscape:window-maximized="1"
     inkscape:current-layer="Camada_2" />
  <defs
     id="defs1">
    <style
       id="style1">
      .cls-1, .cls-2 {
        fill: #fff;
      }

      .cls-2 {
        font-family: Virgo01, 'Virgo 01';
        font-size: 31px;
        letter-spacing: .1em;
      }

      .cls-3 {
        fill: #55b8ca;
      }
    </style>
  </defs>
  <g
     id="g2"
     transform="matrix(0.23568895,0,0,0.23568895,-26.321742,-18.327173)">
    <path
       class="cls-1"
       d="m 118.73,202.9 c 8.98,21.29 25.89,38.4 47.04,47.64 3.17,-51.82 -40.38,-48.45 -47.04,-47.64 z"
       id="path1" />
    <path
       class="cls-1"
       d="m 201.82,77.76 c -19.8,0 -38.1,6.39 -52.97,17.21 4.65,1.19 15.56,4.29 17.08,7.49 1.94,4.09 -22.74,28.26 -26.49,30.98 -2.91,2.12 -16.41,3.1 -22.28,3.44 -3.55,9.67 -5.48,20.13 -5.48,31.03 0,3.46 0.2,6.87 0.58,10.22 7.64,-1.03 88.08,-9.77 78.18,79.21 3.73,0.47 7.52,0.71 11.38,0.71 49.78,0 90.14,-40.36 90.14,-90.14 0,-49.78 -40.36,-90.14 -90.14,-90.14 z m 24.63,58.19 c -9.65,0 -17.47,-7.82 -17.47,-17.47 0,-9.65 7.82,-17.47 17.47,-17.47 9.65,0 17.47,7.82 17.47,17.47 0,9.65 -7.82,17.47 -17.47,17.47 z"
       id="path2" />
  </g>
  <path
     d="m 61.200073,34.4519 q -0.771972,0 -1.498535,-0.378417 -0.711426,-0.393555 -1.120117,-1.120118 -0.408692,-0.726562 -0.408692,-1.528808 0,-0.78711 4.525879,-9.884278 4.525879,-9.097168 4.919434,-9.808593 0.393555,-0.726563 1.120117,-1.120118 0.726563,-0.408691 1.513672,-0.408691 0.787109,0 1.498535,0.408691 0.726563,0.393555 1.120117,1.120118 0.408692,0.711425 4.949707,9.808593 4.556153,9.097168 4.556153,9.884278 0,0.802246 -0.408692,1.528808 -0.408691,0.726563 -1.135254,1.120118 Q 80.105835,34.4519 79.348999,34.4519 Z M 74.399292,28.351803 70.251831,19.82983 66.089233,28.351803 Z M 100.58279,10.23315 q 3.05762,0 5.94873,1.574219 2.90625,1.559082 4.54101,4.480469 1.64991,2.90625 1.64991,6.069824 0,3.148438 -2.43701,6.039551 2.37646,-0.01514 2.48242,3.027344 0,3.04248 -3.05762,3.04248 h -9.12744 q -3.133302,0 -6.024416,-1.589355 -2.891113,-1.604492 -4.495605,-4.480469 -1.589356,-2.891113 -1.589356,-6.039551 0,-3.163574 1.619629,-6.069824 1.619629,-2.921387 4.510743,-4.480469 2.90625,-1.574219 5.979005,-1.574219 z m 0.0303,6.024415 q -1.543943,0 -2.997068,0.787109 -1.437989,0.771973 -2.255372,2.240234 -0.817382,1.453125 -0.817382,3.042481 0,1.574219 0.802246,3.012207 0.802246,1.437988 2.240234,2.240234 1.453125,0.802246 3.027342,0.802246 1.57422,0 3.01221,-0.802246 1.45312,-0.802246 2.25537,-2.240234 0.80225,-1.437988 0.80225,-3.012207 0,-1.589356 -0.81739,-3.042481 -0.81738,-1.468261 -2.2705,-2.240234 -1.45313,-0.787109 -2.98194,-0.787109 z m 21.32461,-6.054688 q 3.02735,0 3.04248,2.921387 l -0.0151,9.218261 q 0.0303,6.054688 4.60156,6.084961 4.54101,-0.04541 4.52588,-6.100097 v -9.097168 q 0.0303,-3.012207 3.04248,-3.057617 3.0122,0.09082 3.02734,3.072754 v 9.097167 q -0.0151,12.094239 -10.5957,12.094239 -10.64112,0.07568 -10.65625,-12.094239 v -9.112304 q 0.0151,-2.997071 3.02734,-3.027344 z M 149.21101,34.4519 q -0.77197,0 -1.49853,-0.378417 -0.71143,-0.393555 -1.12012,-1.120118 -0.40869,-0.726562 -0.40869,-1.528808 0,-0.78711 4.52588,-9.884278 4.52588,-9.097168 4.91943,-9.808593 0.39356,-0.726563 1.12012,-1.120118 0.72656,-0.408691 1.51367,-0.408691 0.78711,0 1.49854,0.408691 0.72656,0.393555 1.12011,1.120118 0.4087,0.711425 4.94971,9.808593 4.55615,9.097168 4.55615,9.884278 0,0.802246 -0.40869,1.528808 -0.40869,0.726563 -1.13525,1.120118 -0.72656,0.378417 -1.4834,0.378417 z m 13.19922,-6.100097 -4.14746,-8.521973 -4.1626,8.521973 z m 17.1166,-18.148926 q 3.04248,0.07568 3.07276,2.966797 l -0.0303,15.197266 H 194.603 q 3.05762,0.01514 3.05762,3.057617 -0.0151,2.981933 -2.99707,3.012207 h -15.13672 q -3.0122,0 -3.02734,-2.936524 V 13.260494 q 0.0151,-2.99707 3.02734,-3.057617 z M 206.84558,34.4519 q -0.77197,0 -1.49853,-0.378417 -0.71143,-0.393555 -1.12012,-1.120118 -0.40869,-0.726562 -0.40869,-1.528808 0,-0.78711 4.52588,-9.884278 4.52588,-9.097168 4.91943,-9.808593 0.39355,-0.726563 1.12012,-1.120118 0.72656,-0.408691 1.51367,-0.408691 0.78711,0 1.49853,0.408691 0.72657,0.393555 1.12012,1.120118 0.40869,0.711425 4.94971,9.808593 4.55615,9.097168 4.55615,9.884278 0,0.802246 -0.40869,1.528808 -0.40869,0.726563 -1.13525,1.120118 -0.72657,0.378417 -1.4834,0.378417 z m 13.19922,-6.100097 -4.14746,-8.521973 -4.1626,8.521973 z M 237.16141,10.23315 h 10.5957 q 3.01221,0 5.29785,2.270508 2.30078,2.270508 2.27051,5.312989 -0.0303,3.027343 -1.57422,4.480468 1.60449,1.574219 1.57422,4.571289 -0.0151,2.981934 -2.30078,5.282715 -2.27051,2.285645 -5.08594,2.285645 h -10.80762 q -2.99707,0.03027 -2.99707,-3.027344 V 13.260494 q 0,-2.99707 3.02735,-3.027344 z m 3.04248,6.069825 V 28.36694 h 7.52295 q 1.52881,0 1.52881,-1.498536 0,-1.528808 -1.49854,-1.528808 l -1.49853,-0.01514 q -3.05762,0 -3.04249,-3.193848 0,-2.860839 3.02735,-2.830566 l 1.51367,0.01514 q 1.51367,0 1.46826,-1.665039 0.0454,-1.332032 -1.46826,-1.347168 z"
     id="text2"
     style="fill:#ffffff;stroke-width:2.75295"
     class="cls-2"
     aria-label="AQUALAB" />
</svg>
