<?xml version="1.0" encoding="UTF-8"?>
<svg id="Camada_2" xmlns="http://www.w3.org/2000/svg" viewBox="0 0 398.11 122.33">
  <defs>
    <style>
      .cls-1 {
        fill: #fff;
      }
    </style>
  </defs>
  <g>
    <path class="cls-1" d="M398.11,104.01c-46.98-20.09-87.34-27.19-134.38-24.34-47.22,2.86-70.12,11.71-101.74,20.85-39.13,11.31-71.81,10.4-71.81,10.4C26.77,109.82,0,81.73,0,81.73c30.62,41.47,109.26,40.6,109.26,40.6,37.67,0,66.95-6.18,106.64-16.83,33.43-8.97,60.98-12.21,101.83-13.06s80.38,11.57,80.38,11.57Z"/>
    <path class="cls-1" d="M87.41,103.95c49.02.94,86.13-14.64,86.13-14.64,0,0-54.83,11.02-106.06,7.28,0,0-29.96-2.55-47.66-13.19,0,0,18.57,19.62,67.6,20.55Z"/>
    <path class="cls-1" d="M312.93,98.27c-47.74.89-77.36,14.68-77.36,14.68,32.13-7.23,52.38-8.09,76.72-8.96,41.5-1.49,74.55,5.39,74.55,5.39,0,0-26.17-12-73.91-11.11Z"/>
  </g>
  <g>
    <path class="cls-1" d="M6.8,54.12c-1.15,0-2.26-.29-3.32-.86-1.07-.57-1.91-1.4-2.51-2.48s-.91-2.21-.91-3.41,3.36-8.51,10.09-22.03C16.86,11.82,20.52,4.53,21.1,3.46c.58-1.07,1.42-1.9,2.5-2.5,1.08-.6,2.2-.89,3.37-.89s2.29.3,3.36.89c1.07.6,1.9,1.43,2.5,2.5.6,1.07,4.27,8.36,11.03,21.88,6.76,13.52,10.14,20.86,10.14,22.03s-.3,2.33-.91,3.41-1.45,1.91-2.53,2.48c-1.08.57-2.18.86-3.31.86H6.8ZM36.22,40.52l-9.24-19-9.28,19h18.52Z"/>
    <path class="cls-1" d="M87.67.14c4.54,0,8.97,1.16,13.28,3.49,4.31,2.33,7.68,5.66,10.12,9.99,2.44,4.33,3.66,8.85,3.66,13.55s-1.81,9.17-5.43,13.46c3.53-.02,5.38,2.23,5.53,6.75,0,4.52-2.27,6.78-6.82,6.78h-20.35c-4.66,0-9.13-1.19-13.43-3.56-4.3-2.37-7.63-5.7-10-9.99-2.37-4.29-3.56-8.77-3.56-13.45s1.2-9.22,3.61-13.55c2.41-4.33,5.76-7.66,10.07-9.99,4.31-2.33,8.74-3.49,13.31-3.49ZM81.08,15.3c-2.15,1.16-3.83,2.82-5.04,4.99-1.21,2.17-1.82,4.44-1.82,6.8s.6,4.58,1.79,6.71c1.19,2.14,2.86,3.8,5.01,4.99,2.15,1.19,4.39,1.79,6.73,1.79s4.58-.6,6.73-1.79c2.15-1.19,3.82-2.86,5.01-4.99,1.19-2.14,1.79-4.37,1.79-6.71s-.61-4.63-1.82-6.8c-1.21-2.17-2.9-3.83-5.06-4.99-2.16-1.16-4.38-1.74-6.65-1.74s-4.52.58-6.66,1.74Z"/>
    <path class="cls-1" d="M128.36.07c4.5,0,6.76,2.17,6.78,6.51l-.03,20.55c.04,9,3.46,13.52,10.26,13.56,6.75-.07,10.11-4.6,10.09-13.6V6.82c.04-4.48,2.31-6.75,6.78-6.82,4.48.14,6.73,2.42,6.75,6.85v20.28c-.02,17.97-7.9,26.96-23.62,26.96-15.81.11-23.73-8.87-23.75-26.96V6.82c.02-4.45,2.27-6.7,6.75-6.75Z"/>
    <path class="cls-1" d="M182.25,54.12c-1.15,0-2.26-.29-3.32-.86-1.07-.57-1.91-1.4-2.51-2.48s-.91-2.21-.91-3.41,3.36-8.51,10.09-22.03c6.73-13.52,10.38-20.81,10.97-21.88.58-1.07,1.42-1.9,2.5-2.5,1.08-.6,2.2-.89,3.37-.89s2.29.3,3.36.89c1.07.6,1.9,1.43,2.5,2.5.6,1.07,4.27,8.36,11.03,21.88,6.76,13.52,10.14,20.86,10.14,22.03s-.3,2.33-.91,3.41-1.45,1.91-2.53,2.48c-1.08.57-2.18.86-3.31.86h-40.45ZM211.67,40.52l-9.24-19-9.28,19h18.52Z"/>
    <path class="cls-1" d="M242.91.07c4.52.11,6.8,2.32,6.85,6.61l-.07,33.88h26.82c4.54.02,6.82,2.29,6.82,6.82-.02,4.43-2.25,6.67-6.68,6.71h-33.74c-4.48,0-6.73-2.18-6.75-6.55V6.88c.02-4.45,2.27-6.73,6.75-6.82Z"/>
    <path class="cls-1" d="M296.9,54.12c-1.15,0-2.26-.29-3.32-.86-1.07-.57-1.91-1.4-2.51-2.48s-.91-2.21-.91-3.41,3.36-8.51,10.09-22.03c6.73-13.52,10.38-20.81,10.97-21.88.58-1.07,1.42-1.9,2.5-2.5,1.08-.6,2.2-.89,3.37-.89s2.29.3,3.36.89c1.07.6,1.9,1.43,2.5,2.5.6,1.07,4.27,8.36,11.03,21.88,6.76,13.52,10.14,20.86,10.14,22.03s-.3,2.33-.91,3.41-1.45,1.91-2.53,2.48c-1.08.57-2.18.86-3.31.86h-40.45ZM326.32,40.52l-9.24-19-9.28,19h18.52Z"/>
    <path class="cls-1" d="M357.56.14h23.62c4.48,0,8.42,1.69,11.83,5.06,3.41,3.37,5.09,7.32,5.04,11.83-.05,4.51-1.21,7.84-3.51,10,2.38,2.34,3.56,5.73,3.53,10.17-.03,4.44-1.74,8.37-5.13,11.78-3.39,3.41-7.17,5.11-11.35,5.11h-24.09c-4.45.04-6.68-2.2-6.68-6.75V6.88c0-4.45,2.25-6.7,6.75-6.75ZM364.34,13.67v26.89h16.77c2.27,0,3.41-1.11,3.41-3.34s-1.11-3.41-3.34-3.41l-3.34-.03c-4.54,0-6.8-2.37-6.78-7.12,0-4.25,2.25-6.35,6.75-6.31l3.37.03c2.25,0,3.34-1.24,3.27-3.71.07-1.98-1.02-2.98-3.27-3h-16.84Z"/>
  </g>
</svg>