<?xml version="1.0" encoding="UTF-8"?>
<svg id="Camada_2" xmlns="http://www.w3.org/2000/svg" viewBox="0 0 197.53 217.96">
  <defs>
    <style>
      .cls-1 {
        fill: #fff;
      }
    </style>
  </defs>
  <g>
    <path class="cls-1" d="M15.92,125.14c8.98,21.29,25.89,38.4,47.04,47.64,3.17-51.82-40.38-48.45-47.04-47.64Z"/>
    <path class="cls-1" d="M99.02,0c-19.8,0-38.1,6.39-52.97,17.21,4.65,1.19,15.56,4.29,17.08,7.49,1.94,4.09-22.74,28.26-26.49,30.98-2.91,2.12-16.41,3.1-22.28,3.44-3.55,9.67-5.48,20.13-5.48,31.03,0,3.46.2,6.87.58,10.22,7.64-1.03,88.08-9.77,78.18,79.21,3.73.47,7.52.71,11.38.71,49.78,0,90.14-40.36,90.14-90.14S148.8,0,99.02,0ZM123.64,58.19c-9.65,0-17.47-7.82-17.47-17.47s7.82-17.47,17.47-17.47,17.47,7.82,17.47,17.47-7.82,17.47-17.47,17.47Z"/>
  </g>
  <g>
    <path class="cls-1" d="M3.03,217.95c-.51,0-1.01-.13-1.49-.39-.48-.26-.86-.63-1.13-1.11s-.41-.99-.41-1.53,1.51-3.82,4.53-9.88c3.02-6.06,4.66-9.34,4.92-9.82.26-.48.64-.85,1.12-1.12.48-.27.99-.4,1.51-.4s1.03.13,1.51.4c.48.27.85.64,1.12,1.12.27.48,1.92,3.75,4.95,9.82,3.03,6.06,4.55,9.36,4.55,9.88s-.14,1.04-.41,1.53-.65.86-1.14,1.11c-.48.26-.98.39-1.48.39H3.03ZM16.23,211.84l-4.15-8.52-4.16,8.52h8.31Z"/>
    <path class="cls-1" d="M42.47,193.73c2.04,0,4.02.52,5.96,1.57,1.93,1.04,3.45,2.54,4.54,4.48,1.09,1.94,1.64,3.97,1.64,6.08s-.81,4.11-2.44,6.04c1.58-.01,2.41,1,2.48,3.03,0,2.03-1.02,3.04-3.06,3.04h-9.13c-2.09,0-4.1-.53-6.02-1.6-1.93-1.06-3.42-2.56-4.49-4.48-1.06-1.92-1.6-3.93-1.6-6.03s.54-4.13,1.62-6.08c1.08-1.94,2.59-3.44,4.52-4.48,1.93-1.04,3.92-1.57,5.97-1.57ZM39.51,200.53c-.96.52-1.72,1.27-2.26,2.24s-.82,1.99-.82,3.05.27,2.05.8,3.01c.53.96,1.28,1.71,2.25,2.24.96.54,1.97.8,3.02.8s2.06-.27,3.02-.8c.96-.53,1.71-1.28,2.25-2.24.53-.96.8-1.96.8-3.01s-.27-2.08-.82-3.05-1.3-1.72-2.27-2.24-1.96-.78-2.98-.78-2.03.26-2.99.78Z"/>
    <path class="cls-1" d="M63.89,193.7c2.02,0,3.03.97,3.04,2.92l-.02,9.22c.02,4.04,1.55,6.06,4.6,6.08,3.03-.03,4.54-2.06,4.53-6.1v-9.1c.02-2.01,1.03-3.03,3.04-3.06,2.01.06,3.02,1.08,3.03,3.07v9.1c-.01,8.06-3.54,12.09-10.6,12.09-7.09.05-10.65-3.98-10.66-12.09v-9.11c0-2,1.02-3.01,3.03-3.03Z"/>
    <path class="cls-1" d="M91.22,217.95c-.51,0-1.01-.13-1.49-.39-.48-.26-.86-.63-1.13-1.11s-.41-.99-.41-1.53,1.51-3.82,4.53-9.88c3.02-6.06,4.66-9.34,4.92-9.82.26-.48.63-.85,1.12-1.12.48-.27.99-.4,1.51-.4s1.03.13,1.51.4c.48.27.85.64,1.12,1.12.27.48,1.92,3.75,4.95,9.82,3.03,6.06,4.55,9.36,4.55,9.88s-.14,1.04-.41,1.53c-.27.48-.65.86-1.13,1.11-.48.26-.98.39-1.48.39h-18.15ZM104.42,211.84l-4.15-8.52-4.16,8.52h8.31Z"/>
    <path class="cls-1" d="M121.6,193.7c2.03.05,3.05,1.04,3.07,2.97l-.03,15.2h12.03c2.04.01,3.06,1.03,3.06,3.06,0,1.99-1.01,2.99-3,3.01h-15.14c-2.01,0-3.02-.98-3.03-2.94v-18.24c0-2,1.02-3.02,3.03-3.06Z"/>
    <path class="cls-1" d="M148.98,217.95c-.52,0-1.01-.13-1.49-.39-.48-.26-.86-.63-1.13-1.11s-.41-.99-.41-1.53,1.51-3.82,4.53-9.88,4.66-9.34,4.92-9.82c.26-.48.63-.85,1.12-1.12.48-.27.99-.4,1.51-.4s1.03.13,1.51.4c.48.27.85.64,1.12,1.12.27.48,1.92,3.75,4.95,9.82s4.55,9.36,4.55,9.88-.14,1.04-.41,1.53c-.27.48-.65.86-1.14,1.11-.48.26-.98.39-1.48.39h-18.15ZM162.18,211.84l-4.15-8.52-4.16,8.52h8.31Z"/>
    <path class="cls-1" d="M179.36,193.73h10.6c2.01,0,3.78.76,5.31,2.27,1.53,1.51,2.28,3.28,2.26,5.31-.02,2.02-.54,3.52-1.57,4.49,1.07,1.05,1.6,2.57,1.58,4.56-.02,1.99-.78,3.75-2.3,5.28-1.52,1.53-3.22,2.29-5.09,2.29h-10.81c-2,.02-3-.99-3-3.03v-18.15c0-2,1.01-3.01,3.03-3.03ZM182.4,199.8v12.06h7.52c1.02,0,1.53-.5,1.53-1.5s-.5-1.53-1.5-1.53h-1.5c-2.04-.01-3.05-1.08-3.04-3.21,0-1.91,1.01-2.85,3.03-2.83l1.51.02c1.01,0,1.5-.56,1.47-1.67.03-.89-.46-1.34-1.47-1.35h-7.55Z"/>
  </g>
</svg>