<?xml version="1.0" encoding="UTF-8"?>
<svg id="Camada_2" xmlns="http://www.w3.org/2000/svg" viewBox="0 0 453.66 135.93">
  <defs>
    <style>
      .cls-1, .cls-2 {
        fill: #fff;
      }

      .cls-2 {
        font-family: Virgo01, 'Virgo 01';
        font-size: 69.1px;
      }
    </style>
  </defs>
  <g>
    <path class="cls-1" d="M425.9,117.61c-46.98-20.09-87.34-27.19-134.38-24.34-47.22,2.86-70.12,11.71-101.74,20.85-39.13,11.31-71.81,10.4-71.81,10.4-63.4-1.11-90.17-29.19-90.17-29.19,30.62,41.47,109.26,40.6,109.26,40.6,37.67,0,66.95-6.18,106.64-16.83,33.43-8.97,60.98-12.21,101.83-13.06s80.38,11.57,80.38,11.57Z"/>
    <path class="cls-1" d="M115.21,117.55c49.02.94,86.13-14.64,86.13-14.64,0,0-54.83,11.02-106.06,7.28,0,0-29.96-2.55-47.66-13.19,0,0,18.57,19.62,67.6,20.55Z"/>
    <path class="cls-1" d="M340.72,111.87c-47.74.89-77.36,14.68-77.36,14.68,32.13-7.23,52.38-8.09,76.72-8.96,41.5-1.49,74.55,5.39,74.55,5.39,0,0-26.17-12-73.91-11.11Z"/>
  </g>
  <text class="cls-2" transform="translate(24.44 67.69)"><tspan x="0" y="0">AQUALAB</tspan></text>
</svg>