<?xml version="1.0" encoding="UTF-8"?>
<svg id="Camada_2" xmlns="http://www.w3.org/2000/svg" viewBox="0 0 180.28 180.28">
  <defs>
    <style>
      .cls-1 {
        fill: #fff;
      }
    </style>
  </defs>
  <path class="cls-1" d="M7.05,125.14c8.98,21.29,25.89,38.4,47.04,47.64,3.17-51.82-40.38-48.45-47.04-47.64Z"/>
  <path class="cls-1" d="M90.14,0c-19.8,0-38.1,6.39-52.97,17.21,4.65,1.19,15.56,4.29,17.08,7.49,1.94,4.09-22.74,28.26-26.49,30.98-2.91,2.12-16.41,3.1-22.28,3.44-3.55,9.67-5.48,20.13-5.48,31.03,0,3.46.2,6.87.58,10.22,7.64-1.03,88.08-9.77,78.18,79.21,3.73.47,7.52.71,11.38.71,49.78,0,90.14-40.36,90.14-90.14S139.92,0,90.14,0ZM114.77,58.19c-9.65,0-17.47-7.82-17.47-17.47s7.82-17.47,17.47-17.47,17.47,7.82,17.47,17.47-7.82,17.47-17.47,17.47Z"/>
</svg>