<?xml version="1.0" encoding="UTF-8"?>
<svg id="Camada_1" xmlns="http://www.w3.org/2000/svg" viewBox="0 0 477.37 209.01">
  <defs>
    <style>
      .cls-1 {
        fill: #1d1d1b;
      }
    </style>
  </defs>
  <g>
    <path class="cls-1" d="M44.91,24.19c-4.24,0-7.35-1.47-9.52-3.85-1.89-2.06-3.05-4.87-3.05-7.98,0-3.43,1.47-6.55,3.82-8.72,2.1-1.92,4.94-3.12,8.75-3.12h12.78v6.27h-12.78c-2.14,0-3.47.6-4.48,1.54-1.08,1.01-1.75,2.48-1.75,4.06,0,1.44.56,2.77,1.47,3.75,1.02,1.12,2.52,1.93,4.76,1.93h6.06c.31,0,.46-.14.46-.49v-6.34h6.3v11.45c0,1.02-.49,1.51-1.5,1.51h-11.31Z"/>
    <path class="cls-1" d="M71.89,24.19c-5.95,0-8.3-2.28-8.3-7.56V.52h6.37v15.4c0,1.47.7,2.21,2.27,2.21h9.84c1.58,0,2.35-.7,2.35-2.21V.52h6.37v16.1c0,5.29-2.35,7.56-8.3,7.56h-10.61Z"/>
    <path class="cls-1" d="M103.18.52v23.66h-6.37V.52h6.37Z"/>
    <path class="cls-1" d="M116.9,24.19c-5.81,0-7.7-2.56-7.7-7.7V.52h6.37v15.37c0,1.72.46,2.24,2.1,2.24h16.42v6.06h-17.19Z"/>
    <path class="cls-1" d="M166.04.52v23.66h-6.37v-9.14h-14.11v9.14h-6.37V.52h6.37v8.58h14.11V.52h6.37Z"/>
    <path class="cls-1" d="M197.09.52v6.27h-17.99c-.38,0-.56.21-.56.6v2.7h18.45v4.55h-18.45v2.87c0,.42.18.63.56.63h17.99v6.06h-21.56c-2.21,0-3.33-1.08-3.33-3.29V3.71c0-2.14,1.12-3.19,3.36-3.19h21.53Z"/>
    <path class="cls-1" d="M209.02,24.19h-6.34V2c0-.98.53-1.47,1.58-1.47h16.8c2.91,0,4.76.88,6.06,2.24,1.16,1.23,1.89,2.87,1.89,4.66,0,1.89-.56,3.68-2.24,4.9,1.58.95,2.28,2.21,2.28,4.9v4.73c0,1.02.03,1.58.1,2.24h-6.41c-.07-.52-.11-1.05-.11-1.58v-4.73c0-1.5-.74-2.1-2.59-2.1h-11.03v8.4ZM220.22,10.4c.88,0,1.4-.31,1.79-.77.28-.35.46-.77.46-1.23,0-.49-.17-.98-.53-1.33-.35-.39-.91-.63-1.71-.63h-10.68c-.35,0-.53.21-.53.53v3.43h11.2Z"/>
    <path class="cls-1" d="M248.92,22.51l-7.18-14.88c-.07-.18-.28-.28-.46-.28-.28,0-.56.21-.56.63v16.21h-6.09V6.86c0-2.66.8-4.31,2.21-5.43,1.05-.84,2.45-1.44,4.13-1.44,3.01,0,4.76,1.79,5.99,4.41l5.36,11.62c.14.35.32.46.59.46s.46-.1.6-.46l5.36-11.62c1.22-2.63,2.97-4.41,5.99-4.41,1.68,0,3.08.6,4.13,1.44,1.4,1.12,2.21,2.77,2.21,5.43v17.33h-6.09V7.98c0-.42-.28-.63-.56-.63-.17,0-.38.1-.46.28l-7.18,14.88c-.73,1.51-2.31,2.17-3.99,2.17s-3.25-.67-3.99-2.17Z"/>
    <path class="cls-1" d="M302.08.52v6.27h-17.99c-.39,0-.56.21-.56.6v2.7h18.45v4.55h-18.45v2.87c0,.42.17.63.56.63h17.99v6.06h-21.56c-2.21,0-3.33-1.08-3.33-3.29V3.71c0-2.14,1.12-3.19,3.36-3.19h21.53Z"/>
    <path class="cls-1" d="M348.85,24.19h-12.39c-4.24,0-7.35-1.47-9.52-3.85-1.89-2.06-3.04-4.87-3.04-7.98,0-3.43,1.47-6.55,3.81-8.72,2.1-1.92,4.94-3.12,8.75-3.12h12.39v6.27h-12.39c-2.13,0-3.46.6-4.48,1.54-1.08,1.01-1.75,2.48-1.75,4.06,0,1.44.56,2.77,1.47,3.75,1.01,1.12,2.52,1.82,4.76,1.82h12.39v6.23Z"/>
    <path class="cls-1" d="M360.78,24.19h-6.34V2c0-.98.53-1.47,1.58-1.47h16.8c2.91,0,4.76.88,6.06,2.24,1.16,1.23,1.89,2.87,1.89,4.66,0,1.89-.56,3.68-2.24,4.9,1.58.95,2.28,2.21,2.28,4.9v4.73c0,1.02.03,1.58.1,2.24h-6.41c-.07-.52-.11-1.05-.11-1.58v-4.73c0-1.5-.74-2.1-2.59-2.1h-11.03v8.4ZM371.98,10.4c.88,0,1.4-.31,1.79-.77.28-.35.46-.77.46-1.23,0-.49-.17-.98-.53-1.33-.35-.39-.91-.63-1.71-.63h-10.68c-.35,0-.53.21-.53.53v3.43h11.2Z"/>
    <path class="cls-1" d="M394.69,24.19c-5.95,0-8.3-2.28-8.3-7.56V.52h6.37v15.4c0,1.47.7,2.21,2.28,2.21h9.84c1.58,0,2.35-.7,2.35-2.21V.52h6.37v16.1c0,5.29-2.34,7.56-8.3,7.56h-10.61Z"/>
    <path class="cls-1" d="M444.6,18.13v6.06h-20.86c-1.86,0-2.98-.63-3.68-1.54-.56-.74-.88-1.61-.88-2.56,0-.84.32-1.75,1.01-2.59.32-.35.74-.67,1.65-1.3l12.71-8.93c.07-.04.11-.14.11-.21,0-.14-.11-.28-.28-.28h-15.02V.52h20.41c1.79,0,2.77.53,3.47,1.26.7.73,1.08,1.72,1.08,2.59,0,.63-.14,1.23-.39,1.79-.24.56-.59,1.05-1.64,1.82l-12.78,9.52c-.14.1-.21.21-.21.31,0,.17.14.31.42.31h14.88Z"/>
  </g>
  <g>
    <path class="cls-1" d="M119.12,88.52c3.82,0,6.65,1.19,8.75,3.12,2.35,2.17,3.82,5.29,3.82,8.72,0,3.12-1.15,5.92-3.04,7.98-2.17,2.38-5.29,3.85-9.52,3.85h-12.78c-1.02,0-1.54-.49-1.54-1.51v-20.69c0-.98.53-1.47,1.54-1.47h12.78ZM111.6,94.79c-.31,0-.46.14-.46.49v10.19c0,.35.14.49.46.49h7.53c2.24,0,3.75-.7,4.76-1.82.91-.98,1.47-2.31,1.47-3.75,0-1.58-.67-3.05-1.75-4.06-1.02-.95-2.35-1.54-4.48-1.54h-7.53Z"/>
    <path class="cls-1" d="M143.76,88.52v23.66h-6.37v-23.66h6.37Z"/>
    <path class="cls-1" d="M179.29,107.6c0,3.57-2.14,5.08-4.45,5.08-2,0-3.5-.56-4.62-1.86l-12.99-15.02c-.17-.21-.35-.31-.56-.31-.31,0-.6.25-.6.67v16.03h-6.23v-18.66c0-4.03,2.31-5.53,5.5-5.53,2.24,0,3.64.6,5.11,2.35l11.55,13.83c.18.24.39.28.6.28.28,0,.49-.21.49-.63v-15.3h6.2v19.08Z"/>
    <path class="cls-1" d="M191.82,88.52v23.66h-6.37v-23.66h6.37Z"/>
    <path class="cls-1" d="M222.72,94.79h-17.01c-.77,0-1.19.18-1.47.46-.31.31-.49.74-.49,1.23,0,.53.25.98.6,1.26.28.25.63.35,1.37.35h10.4c2.66,0,4.45.84,5.71,2.14,1.26,1.29,2.03,3.05,2.03,4.9,0,1.72-.67,3.36-1.75,4.62-1.3,1.5-3.19,2.45-5.99,2.45h-18.34v-6.06h17.22c.98,0,1.47-.21,1.79-.6.25-.28.39-.67.39-1.08,0-.49-.18-.94-.49-1.26-.32-.35-.77-.52-1.68-.52h-9.63c-3.15,0-4.97-.84-6.23-2.14s-2-3.01-2-4.94.77-3.64,2.03-4.94c1.26-1.29,3.04-2.14,6.2-2.14h17.36v6.27Z"/>
    <path class="cls-1" d="M252.09,112.19h-6.34v-22.19c0-.98.53-1.47,1.58-1.47h16.8c2.91,0,4.76.88,6.06,2.24,1.16,1.23,1.89,2.87,1.89,4.66,0,1.89-.56,3.68-2.24,4.9,1.58.95,2.28,2.21,2.28,4.9v4.73c0,1.02.03,1.58.1,2.24h-6.41c-.07-.52-.11-1.05-.11-1.58v-4.73c0-1.5-.74-2.1-2.59-2.1h-11.03v8.4ZM263.29,98.4c.88,0,1.4-.31,1.79-.77.28-.35.46-.77.46-1.23,0-.49-.17-.98-.53-1.33-.35-.39-.91-.63-1.71-.63h-10.68c-.35,0-.53.21-.53.53v3.43h11.2Z"/>
    <path class="cls-1" d="M289.5,112.19c-4.24,0-7.35-1.47-9.52-3.85-1.89-2.06-3.04-4.87-3.04-7.98,0-3.43,1.47-6.55,3.82-8.72,2.1-1.92,4.93-3.12,8.75-3.12h4.97c3.82,0,6.65,1.19,8.75,3.12,2.35,2.17,3.82,5.29,3.82,8.72,0,3.12-1.16,5.92-3.04,7.98-2.17,2.38-5.29,3.85-9.52,3.85h-4.97ZM289.5,94.79c-2.13,0-3.46.6-4.48,1.54-1.08,1.01-1.75,2.48-1.75,4.06,0,1.44.56,2.77,1.47,3.75,1.01,1.12,2.52,1.82,4.76,1.82h4.97c2.24,0,3.75-.7,4.76-1.82.91-.98,1.47-2.31,1.47-3.75,0-1.58-.67-3.05-1.75-4.06-1.01-.95-2.34-1.54-4.48-1.54h-4.97Z"/>
    <path class="cls-1" d="M340.43,88.52c-.17.25-.42.53-.7.77l-10.61,10.26,11.97,11.9c.25.24.42.49.59.73h-9.07c-.17-.28-.35-.49-.56-.7l-7.53-7.84-7.95,7.84c-.25.25-.46.49-.63.7h-8.33c.18-.28.35-.46.63-.73l12.22-11.9-10.57-10.26c-.31-.28-.49-.49-.67-.77h8.82c.14.21.35.49.59.77l6.27,6.37,6.62-6.37c.28-.24.49-.52.67-.77h8.23Z"/>
    <path class="cls-1" d="M354.99,112.19c-4.24,0-7.35-1.47-9.52-3.85-1.89-2.06-3.04-4.87-3.04-7.98,0-3.43,1.47-6.55,3.82-8.72,2.1-1.92,4.93-3.12,8.75-3.12h4.97c3.82,0,6.65,1.19,8.75,3.12,2.35,2.17,3.82,5.29,3.82,8.72,0,3.12-1.16,5.92-3.04,7.98-2.17,2.38-5.29,3.85-9.52,3.85h-4.97ZM354.99,94.79c-2.13,0-3.46.6-4.48,1.54-1.08,1.01-1.75,2.48-1.75,4.06,0,1.44.56,2.77,1.47,3.75,1.01,1.12,2.52,1.82,4.76,1.82h4.97c2.24,0,3.75-.7,4.76-1.82.91-.98,1.47-2.31,1.47-3.75,0-1.58-.67-3.05-1.75-4.06-1.01-.95-2.34-1.54-4.48-1.54h-4.97Z"/>
  </g>
  <g>
    <path class="cls-1" d="M12.57,200.19c-4.24,0-7.35-1.47-9.52-3.85-1.89-2.06-3.05-4.87-3.05-7.98,0-3.43,1.47-6.55,3.82-8.72,2.1-1.92,4.94-3.12,8.75-3.12h12.78v6.27h-12.78c-2.14,0-3.47.6-4.48,1.54-1.08,1.01-1.75,2.48-1.75,4.06,0,1.44.56,2.77,1.47,3.75,1.02,1.12,2.52,1.93,4.76,1.93h6.06c.31,0,.46-.14.46-.49v-6.34h6.3v11.45c0,1.02-.49,1.51-1.51,1.51h-11.31Z"/>
    <path class="cls-1" d="M43.44,200.19c-4.24,0-7.35-1.47-9.52-3.85-1.89-2.06-3.05-4.87-3.05-7.98,0-3.43,1.47-6.55,3.82-8.72,2.1-1.92,4.94-3.12,8.75-3.12h4.97c3.82,0,6.65,1.19,8.75,3.12,2.35,2.17,3.82,5.29,3.82,8.72,0,3.12-1.15,5.92-3.04,7.98-2.17,2.38-5.29,3.85-9.52,3.85h-4.97ZM43.44,182.79c-2.14,0-3.47.6-4.48,1.54-1.08,1.01-1.75,2.48-1.75,4.06,0,1.44.56,2.77,1.47,3.75,1.02,1.12,2.52,1.82,4.76,1.82h4.97c2.24,0,3.75-.7,4.76-1.82.91-.98,1.47-2.31,1.47-3.75,0-1.58-.67-3.05-1.75-4.06-1.01-.95-2.35-1.54-4.48-1.54h-4.97Z"/>
    <path class="cls-1" d="M96.01,195.6c0,3.57-2.14,5.08-4.45,5.08-2,0-3.5-.56-4.62-1.86l-12.99-15.02c-.17-.21-.35-.31-.56-.31-.31,0-.6.25-.6.67v16.03h-6.23v-18.66c0-4.03,2.31-5.53,5.5-5.53,2.24,0,3.64.6,5.11,2.35l11.55,13.83c.18.24.39.28.6.28.28,0,.49-.21.49-.63v-15.3h6.2v19.08Z"/>
    <path class="cls-1" d="M126.56,200.19h-12.39c-4.24,0-7.35-1.47-9.52-3.85-1.89-2.06-3.05-4.87-3.05-7.98,0-3.43,1.47-6.55,3.82-8.72,2.1-1.92,4.94-3.12,8.75-3.12h12.39v6.27h-12.39c-2.14,0-3.47.6-4.48,1.54-1.08,1.01-1.75,2.48-1.75,4.06,0,1.44.56,2.77,1.47,3.75,1.02,1.12,2.52,1.82,4.76,1.82h12.39v6.23ZM119.28,201.94l-4.59,7.07h-5.01l3.4-7.07h6.2Z"/>
    <path class="cls-1" d="M162.16,199.14c.17.39.28.7.38,1.05h-7.14c-.07-.31-.18-.56-.28-.81l-1.26-2.87h-14l-1.23,2.84c-.11.28-.21.56-.25.84h-7.32c.1-.35.21-.67.39-1.05l8.47-18.76c1.33-2.94,3.47-4.38,6.86-4.38s5.5,1.44,6.83,4.38l8.54,18.76ZM151.55,191.3l-3.64-8.47c-.21-.52-.63-.73-1.09-.73-.42,0-.8.17-1.05.73l-3.61,8.47h9.38Z"/>
    <path class="cls-1" d="M173.7,200.19c-5.81,0-7.7-2.56-7.7-7.7v-15.96h6.37v15.37c0,1.72.46,2.24,2.1,2.24h16.42v6.06h-17.19Z"/>
    <path class="cls-1" d="M207.02,200.19c-4.24,0-7.35-1.47-9.52-3.85-1.89-2.06-3.05-4.87-3.05-7.98,0-3.43,1.47-6.55,3.82-8.72,2.1-1.92,4.94-3.12,8.75-3.12h4.97c3.82,0,6.65,1.19,8.75,3.12,2.35,2.17,3.82,5.29,3.82,8.72,0,3.12-1.16,5.92-3.04,7.98-2.17,2.38-5.29,3.85-9.52,3.85h-4.97ZM207.02,182.79c-2.13,0-3.46.6-4.48,1.54-1.08,1.01-1.75,2.48-1.75,4.06,0,1.44.56,2.77,1.47,3.75,1.01,1.12,2.52,1.82,4.76,1.82h4.97c2.24,0,3.75-.7,4.76-1.82.91-.98,1.47-2.31,1.47-3.75,0-1.58-.67-3.05-1.75-4.06-1.01-.95-2.34-1.54-4.48-1.54h-4.97Z"/>
    <path class="cls-1" d="M271.81,176.52v6.27h-17.57c-.67,0-.98.35-.98,1.05v2.56h18.45v5.88h-18.45v7.91h-6.34v-19.32c0-2.94,1.44-4.34,4.27-4.34h20.62Z"/>
    <path class="cls-1" d="M302.08,176.52v6.27h-17.99c-.39,0-.56.21-.56.6v2.7h18.45v4.55h-18.45v2.87c0,.42.17.63.56.63h17.99v6.06h-21.56c-2.21,0-3.33-1.08-3.33-3.29v-17.19c0-2.14,1.12-3.19,3.36-3.19h21.53Z"/>
    <path class="cls-1" d="M314.02,200.19h-6.34v-22.19c0-.98.53-1.47,1.58-1.47h16.8c2.91,0,4.76.88,6.06,2.24,1.16,1.23,1.89,2.87,1.89,4.66,0,1.89-.56,3.68-2.24,4.9,1.58.95,2.28,2.21,2.28,4.9v4.73c0,1.02.03,1.58.1,2.24h-6.41c-.07-.52-.11-1.05-.11-1.58v-4.73c0-1.5-.74-2.1-2.59-2.1h-11.03v8.4ZM325.22,186.4c.88,0,1.4-.31,1.79-.77.28-.35.46-.77.46-1.23,0-.49-.17-.98-.53-1.33-.35-.39-.91-.63-1.71-.63h-10.68c-.35,0-.53.21-.53.53v3.43h11.2Z"/>
    <path class="cls-1" d="M346.11,200.19h-6.34v-22.19c0-.98.53-1.47,1.58-1.47h16.8c2.91,0,4.76.88,6.06,2.24,1.16,1.23,1.89,2.87,1.89,4.66,0,1.89-.56,3.68-2.24,4.9,1.58.95,2.28,2.21,2.28,4.9v4.73c0,1.02.03,1.58.1,2.24h-6.41c-.07-.52-.11-1.05-.11-1.58v-4.73c0-1.5-.74-2.1-2.59-2.1h-11.03v8.4ZM357.31,186.4c.88,0,1.4-.31,1.79-.77.28-.35.46-.77.46-1.23,0-.49-.17-.98-.53-1.33-.35-.39-.91-.63-1.71-.63h-10.68c-.35,0-.53.21-.53.53v3.43h11.2Z"/>
    <path class="cls-1" d="M396.72,176.52v6.27h-17.99c-.39,0-.56.21-.56.6v2.7h18.45v4.55h-18.45v2.87c0,.42.17.63.56.63h17.99v6.06h-21.56c-2.21,0-3.33-1.08-3.33-3.29v-17.19c0-2.14,1.12-3.19,3.36-3.19h21.53Z"/>
    <path class="cls-1" d="M408.73,176.52v23.66h-6.37v-23.66h6.37Z"/>
    <path class="cls-1" d="M421.22,200.19h-6.34v-22.19c0-.98.53-1.47,1.58-1.47h16.8c2.91,0,4.76.88,6.06,2.24,1.16,1.23,1.89,2.87,1.89,4.66,0,1.89-.56,3.68-2.24,4.9,1.58.95,2.28,2.21,2.28,4.9v4.73c0,1.02.03,1.58.1,2.24h-6.41c-.07-.52-.11-1.05-.11-1.58v-4.73c0-1.5-.74-2.1-2.59-2.1h-11.03v8.4ZM432.42,186.4c.88,0,1.4-.31,1.79-.77.28-.35.46-.77.46-1.23,0-.49-.17-.98-.53-1.33-.35-.39-.91-.63-1.71-.63h-10.68c-.35,0-.53.21-.53.53v3.43h11.2Z"/>
    <path class="cls-1" d="M476.98,199.14c.17.39.28.7.39,1.05h-7.14c-.07-.31-.17-.56-.28-.81l-1.26-2.87h-14l-1.23,2.84c-.1.28-.21.56-.25.84h-7.32c.11-.35.21-.67.38-1.05l8.47-18.76c1.33-2.94,3.47-4.38,6.86-4.38s5.5,1.44,6.83,4.38l8.54,18.76ZM466.37,191.3l-3.64-8.47c-.21-.52-.63-.73-1.08-.73-.42,0-.81.17-1.05.73l-3.61,8.47h9.38Z"/>
  </g>
</svg>